<svg width="22" height="25" viewBox="0 0 22 25" fill="none" xmlns="http://www.w3.org/2000/svg">
<path d="M10.9863 0C7.35161 0 4.39453 2.95708 4.39453 6.5918C4.39453 10.2265 7.35161 13.1836 10.9863 13.1836C14.621 13.1836 17.5781 10.2265 17.5781 6.5918C17.5781 2.95708 14.621 0 10.9863 0Z" fill="#0F6B2D"/>
<path d="M19.1878 17.0251C17.3831 15.1927 14.9907 14.1836 12.4512 14.1836H9.52148C6.98203 14.1836 4.58955 15.1927 2.78486 17.0251C0.989014 18.8486 0 21.2555 0 23.8027C0 24.2072 0.32793 24.5352 0.732422 24.5352H21.2402C21.6447 24.5352 21.9727 24.2072 21.9727 23.8027C21.9727 21.2555 20.9836 18.8486 19.1878 17.0251Z" fill="#0F6B2D"/>
</svg>
