<?xml version="1.0"?>
<svg xmlns="http://www.w3.org/2000/svg" xmlns:xlink="http://www.w3.org/1999/xlink" xmlns:svgjs="http://svgjs.com/svgjs" version="1.1" width="512" height="512" x="0" y="0" viewBox="0 0 512 512" style="enable-background:new 0 0 512 512" xml:space="preserve" class=""><g><g xmlns="http://www.w3.org/2000/svg"><path d="m46.25 447.886h168.139l-2.106 12.21c-4.67 27.083 16.176 51.904 43.717 51.904 27.479 0 48.399-24.762 43.717-51.903l-2.106-12.211h168.14c4.688 0 8.886-2.424 11.229-6.483 2.345-4.06 2.344-8.908 0-12.968-.105-.183-54.588-94.549-54.395-94.215-3.533-6.127-5.401-13.103-5.401-20.175v-83.936c0-68.251-42.549-128.595-106.37-151.626 2.941-8.023 4.094-16.679 3.341-25.299-2.282-26.143-24.634-53.184-58.089-53.184-32.229 0-58.449 26.19-58.449 58.383 0 6.936 1.197 13.678 3.564 20.1-30.167 10.89-56.114 30.318-75.232 56.381-2.45 3.34-1.729 8.034 1.611 10.483 3.339 2.451 8.033 1.729 10.483-1.611 18.104-24.68 42.946-42.798 71.842-52.396 3.002-.998 5.441-3.209 6.689-6.07 1.245-2.851 1.21-6.13-.094-8.995-2.564-5.638-3.864-11.657-3.864-17.893 0-23.921 19.491-43.383 43.449-43.383 27.382 0 41.714 23.091 43.146 39.489.665 7.613-.658 15.248-3.827 22.079-1.305 2.811-1.361 6.017-.156 8.796 1.194 2.753 3.543 4.879 6.444 5.832 60.119 19.756 100.512 75.581 100.512 138.913v83.936c0 5.59.851 11.136 2.5 16.441h-41.472c-4.143 0-7.5 3.358-7.5 7.5s3.357 7.5 7.5 7.5h48.558l50.46 87.4c-59.158 0-353.35 0-412.46 0l13.532-23.438c2.071-3.587.842-8.174-2.745-10.245-3.588-2.072-8.175-.842-10.245 2.745l-15.292 26.486c-2.344 4.06-2.344 8.907 0 12.967 2.343 4.062 6.542 6.486 11.23 6.486zm238.686 14.76c3.09 17.926-10.707 34.354-28.936 34.354-18.191 0-32.033-16.392-28.936-34.354l2.546-14.76h52.78z" fill="#0f6b2d" data-original="#000000" style=""/><path d="m70.707 381.621c3.572 2.063 8.166.857 10.245-2.745l19.278-33.39h227.981c4.143 0 7.5-3.358 7.5-7.5s-3.357-7.5-7.5-7.5h-220.895c1.649-5.305 2.5-10.852 2.5-16.442v-83.937c0-19.748 3.868-38.902 11.496-56.929 1.615-3.814-.169-8.215-3.984-9.83-3.814-1.617-8.215.169-9.83 3.984-8.416 19.887-12.683 41.007-12.683 62.774v83.937c0 7.08-1.871 14.062-5.41 20.192l-21.443 37.14c-2.071 3.588-.842 8.175 2.745 10.246z" fill="#0f6b2d" data-original="#000000" style=""/><path d="m256 83.92c14.081 0 25.537-11.456 25.537-25.537 0-14.082-11.456-25.538-25.537-25.538-14.082 0-25.538 11.456-25.538 25.538.001 14.081 11.457 25.537 25.538 25.537zm0-36.074c5.811 0 10.537 4.727 10.537 10.538 0 5.81-4.727 10.537-10.537 10.537s-10.538-4.727-10.538-10.537c.001-5.811 4.728-10.538 10.538-10.538z" fill="#0f6b2d" data-original="#000000" style=""/><path d="m226.884 100.788c-1.824 3.719-.289 8.212 3.43 10.037 8.036 3.942 16.678 5.941 25.687 5.941 8.928 0 17.5-1.965 25.479-5.84 3.727-1.81 5.279-6.297 3.47-10.023s-6.298-5.281-10.022-3.47c-5.921 2.875-12.288 4.333-18.927 4.333-6.698 0-13.118-1.483-19.08-4.408-3.72-1.825-8.213-.289-10.037 3.43z" fill="#0f6b2d" data-original="#000000" style=""/></g></g></svg>
