<?xml version="1.0"?>
<svg xmlns="http://www.w3.org/2000/svg" xmlns:xlink="http://www.w3.org/1999/xlink" xmlns:svgjs="http://svgjs.com/svgjs" version="1.1" width="512" height="512" x="0" y="0" viewBox="0 0 74 74" style="enable-background:new 0 0 512 512" xml:space="preserve" class=""><g><path xmlns="http://www.w3.org/2000/svg" d="m54.429 28.08a1 1 0 0 1 -1-.922 16.123 16.123 0 0 0 -.471-2.8 1 1 0 0 1 1.936-.5 18.178 18.178 0 0 1 .533 3.142 1 1 0 0 1 -.919 1.075c-.026.004-.052.005-.079.005z" fill="#ffffff" data-original="#000000" style="" class=""/><path xmlns="http://www.w3.org/2000/svg" d="m61.11 63.64h-48.22a4.765 4.765 0 0 1 -4.444-2.909 4.885 4.885 0 0 1 .967-5.357 31.935 31.935 0 0 0 2.91-3.541c.56-.778 1.041-1.511 1.475-2.25a33.033 33.033 0 0 0 4.702-16.993v-3.51a19.154 19.154 0 0 1 15.276-18.713 17.823 17.823 0 0 1 6.451-.021 18.553 18.553 0 0 1 11.373 6.862 1 1 0 0 1 -1.583 1.223 16.521 16.521 0 0 0 -10.141-6.116 15.7 15.7 0 0 0 -5.726.017 17.128 17.128 0 0 0 -13.65 16.748v3.51a35.023 35.023 0 0 1 -4.982 18.01c-.461.785-.975 1.569-1.566 2.391a34 34 0 0 1 -3.086 3.753 2.918 2.918 0 0 0 -.584 3.192 2.761 2.761 0 0 0 2.608 1.7h48.22a2.763 2.763 0 0 0 2.611-1.7 2.913 2.913 0 0 0 -.587-3.19 33.715 33.715 0 0 1 -3.023-3.665.857.857 0 0 1 -.075-.092 35.135 35.135 0 0 1 -4.344-8.189 1 1 0 0 1 1.875-.7 33.107 33.107 0 0 0 4.03 7.632 1 1 0 0 1 .081.1 31.609 31.609 0 0 0 2.907 3.537 4.878 4.878 0 0 1 .973 5.355 4.767 4.767 0 0 1 -4.448 2.916z" fill="#ffffff" data-original="#000000" style="" class=""/><path xmlns="http://www.w3.org/2000/svg" d="m54.88 38.615a1 1 0 0 1 -1-.9c-.153-.972-.258-1.984-.323-3.09a1 1 0 0 1 2-.117c.063 1.058.164 2.02.31 2.943a1.015 1.015 0 0 1 .012.156 1 1 0 0 1 -.999 1.008z" fill="#ffffff" data-original="#000000" style="" class=""/><path xmlns="http://www.w3.org/2000/svg" d="m33.963 12.348a1 1 0 0 1 -.642-.233 5.73 5.73 0 1 1 7.372-.014 1 1 0 0 1 -1.284-1.533 3.693 3.693 0 0 0 1.32-2.839 3.729 3.729 0 1 0 -6.123 2.853 1 1 0 0 1 -.643 1.766z" fill="#ffffff" data-original="#000000" style="" class=""/><path xmlns="http://www.w3.org/2000/svg" d="m60.858 53.41h-47.728a1 1 0 1 1 0-2h47.728a1 1 0 1 1 0 2z" fill="#ffffff" data-original="#000000" style="" class=""/><path xmlns="http://www.w3.org/2000/svg" d="m37.1 72a9.366 9.366 0 0 1 -9.356-9.355 1 1 0 0 1 2 0 7.356 7.356 0 0 0 14.711 0 1 1 0 1 1 2 0 9.366 9.366 0 0 1 -9.355 9.355z" fill="#ffffff" data-original="#000000" style="" class=""/></g></svg>
