<svg width="28" height="25" viewBox="0 0 28 25" fill="none" xmlns="http://www.w3.org/2000/svg">
<path d="M15.0736 5.43072e-05C8.43245 -0.0193072 2.9931 5.14075 2.56446 11.669H0.825581C0.191008 11.669 -0.205634 12.3559 0.11168 12.9055L2.04837 16.2599L3.98506 19.6143C4.30237 20.1639 5.0956 20.1639 5.41291 19.6143L7.3496 16.2599L9.28629 12.9055C9.6036 12.3559 9.20696 11.669 8.57239 11.669H6.51087C6.93462 7.2881 10.6717 3.86181 15.1783 3.93512C19.739 4.00928 23.4688 7.69125 23.5989 12.2507C23.737 17.0874 19.8426 21.0661 15.0364 21.0661C13.8039 21.0661 12.6315 20.8043 11.5715 20.3334C10.652 19.925 9.57268 20.2773 9.0696 21.1487C8.48687 22.158 8.9011 23.4553 9.96615 23.9287C11.5158 24.6173 13.2314 25 15.0364 25C21.9312 25 27.5221 19.4179 27.5364 12.5265C27.5506 5.60424 21.9958 0.0202763 15.0736 5.43072e-05Z" fill="#FEFEFE"/>
<path d="M18.2858 11.9609H17.3403C17.0968 11.2745 16.552 10.7301 15.8656 10.4866V9.50436C15.8656 9.05883 15.5044 8.69763 15.0589 8.69763C14.6133 8.69763 14.2521 9.05883 14.2521 9.50436V10.4861C13.3132 10.8192 12.6387 11.7159 12.6387 12.7676C12.6387 14.1021 13.7243 15.1878 15.0589 15.1878C15.0638 15.1878 15.0686 15.1871 15.0735 15.1869V15.1874C16.1188 15.1811 17.0088 14.5088 17.3403 13.5743H18.2858C18.7313 13.5743 19.0925 13.2131 19.0925 12.7676C19.0925 12.322 18.7313 11.9609 18.2858 11.9609ZM15.0735 13.5736C15.0686 13.5737 15.0638 13.5743 15.0589 13.5743C14.614 13.5743 14.2521 13.2124 14.2521 12.7676C14.2521 12.3227 14.614 11.9609 15.0589 11.9609C15.0638 11.9609 15.0686 11.9615 15.0735 11.9616C15.5116 11.9696 15.8656 12.3277 15.8656 12.7676C15.8656 13.2075 15.5116 13.5656 15.0735 13.5736Z" fill="#FEFEFE"/>
</svg>
