<svg width="48" height="47" viewBox="0 0 48 47" fill="none" xmlns="http://www.w3.org/2000/svg">
<path d="M0.539136 32.0767L1.378 32.3561C5.39888 33.6937 9.15051 35.7343 12.4582 38.3831L19.097 43.6945C19.142 43.7256 19.1904 43.7521 19.2412 43.7727L19.2366 43.7829L21.9368 45.134V47H23.5033V35.6416L26.3233 33.5264L26.315 33.5156C26.3471 33.4972 26.3779 33.4765 26.4074 33.4537C31.3679 28.5093 37.8284 25.3497 44.7768 24.4693L46.3175 24.2767C46.7469 24.2228 47.0513 23.8313 46.9974 23.4018C46.9604 23.107 46.7595 22.8584 46.4789 22.7601L39.9624 20.4798C34.6541 18.6219 28.8446 21.4191 26.9866 26.7277C26.9521 26.826 26.9191 26.9252 26.8877 27.0247L25.1823 32.4245L23.5036 33.6832V22.4068C23.5018 20.904 24.2535 19.5002 25.5051 18.6681L25.4965 18.6554C25.5418 18.6314 25.5846 18.6028 25.624 18.5701C28.7706 15.4226 30.4145 11.0755 30.1378 6.63347L29.7703 0.734008C29.7472 0.362788 29.4665 0.0593426 29.0984 0.00697131C28.7309 -0.0420112 28.3788 0.171171 28.2515 0.519285L25.718 7.61035C24.7704 10.2588 24.2861 13.0511 24.287 15.8644V17.6293C22.8058 18.7722 21.938 20.5368 21.9368 22.4077V23.9594L21.1401 23.1628C21.0067 17.3379 17.2292 12.2243 11.701 10.3842L6.51778 8.66086C6.10712 8.52346 5.66351 8.74496 5.52642 9.1553C5.48113 9.29024 5.47374 9.43503 5.50485 9.57397L6.36651 13.4611C7.74665 19.803 13.375 24.3149 19.865 24.2829H20.0459L21.9371 26.1738V43.3824L20.3703 42.599V40.9878C20.37 34.2171 14.8812 28.7286 8.11048 28.7289C6.79288 28.7289 5.4836 28.9415 4.23346 29.3583L0.539136 30.5896C0.127867 30.7249 -0.0957888 31.1676 0.0394522 31.5785C0.117085 31.8148 0.302541 32.0003 0.539136 32.0782V32.0767ZM28.3815 27.4948C29.5155 23.9144 32.8337 21.4776 36.5893 21.4669C37.5622 21.4684 38.5277 21.6338 39.4454 21.9564L42.9053 23.1677C37.2273 24.1865 31.9114 26.663 27.4783 30.3549L28.3815 27.4948ZM25.8535 15.8644C25.8526 13.231 26.3052 10.6171 27.1915 8.13745L28.445 4.63443L28.5756 6.73144C28.7796 10.017 27.8153 13.2689 25.8535 15.9121V15.8644ZM7.89853 13.117L7.33446 10.5798L11.205 11.87C15.493 13.2973 18.6448 16.9719 19.4026 21.4268L13.0907 15.1148L11.9829 16.2223L18.3885 22.628C13.2179 22.0263 9.00202 18.2041 7.89853 13.117ZM4.73068 30.8444C10.3323 28.9766 16.387 32.0033 18.2545 37.6046C18.6183 38.6955 18.8038 39.8381 18.8035 40.9878V41.4533L13.4376 37.1613C10.3603 34.6961 6.91179 32.7341 3.22054 31.3481L4.73068 30.8444Z" fill="white"/>
</svg>
