<svg width="10" height="10" viewBox="0 0 10 10" fill="none" xmlns="http://www.w3.org/2000/svg">
<path d="M9.68794 4.11857L8.57031 3.93231C8.43294 3.9094 8.31416 3.82791 8.24136 3.71433L8.72676 3.68577C9.1885 3.65862 9.58497 3.39382 9.78733 2.97741C9.98968 2.56108 9.95294 2.08581 9.68907 1.70604C9.29076 1.13279 8.79818 0.640198 8.22501 0.241928C7.84519 -0.0219434 7.36989 -0.0586806 6.95366 0.143665C6.53725 0.346029 6.27245 0.742515 6.24528 1.20425L6.21671 1.68969C6.10314 1.61691 6.02161 1.49813 5.99875 1.36074L5.81246 0.243111C5.78787 0.0955418 5.65527 -0.00916107 5.50611 0.00063421L4.95179 0.0375847C4.49879 0.0677852 4.09384 0.301301 3.84078 0.678235C3.58771 1.05519 3.52492 1.5184 3.66848 1.94912L3.80763 2.36657L3.71807 2.42628C3.64764 2.47324 3.56383 2.48716 3.482 2.4654C3.40018 2.44367 3.33431 2.39002 3.29645 2.31432L2.76828 1.25804C2.72646 1.17438 2.64697 1.11594 2.55464 1.10096C2.46243 1.08597 2.36844 1.11631 2.30231 1.18243L1.55083 1.93391C1.26399 2.22075 1.10915 2.61772 1.12601 3.02301C1.14286 3.42832 1.33014 3.81106 1.6398 4.07311L2.25171 4.59086C2.12728 4.70644 1.95855 4.76785 1.78167 4.75418L0.610212 4.66408C0.525488 4.65762 0.442218 4.68839 0.382166 4.74846C0.322095 4.80851 0.291274 4.89182 0.297791 4.9765L0.352295 5.68496C0.380498 6.05152 0.544574 6.39096 0.814323 6.64077C1.08407 6.89058 1.43511 7.02814 1.80275 7.02814H2.49143L5.94298 3.57659C6.05659 3.46297 6.24081 3.46297 6.35444 3.57659C6.46807 3.69022 6.46807 3.87443 6.35444 3.98805L2.90289 7.4396V8.12826C2.90289 8.4959 3.04047 8.84692 3.29026 9.11667C3.54005 9.38642 3.87949 9.55051 4.24605 9.57869L4.95453 9.6332C4.962 9.63376 4.96945 9.63405 4.97685 9.63405C5.0537 9.63405 5.1278 9.6036 5.18256 9.54882C5.24263 9.48877 5.27345 9.40546 5.26693 9.32078L5.17681 8.14936C5.16322 7.9726 5.22457 7.80373 5.34015 7.67932L5.85789 8.29119C6.11992 8.60085 6.50265 8.78813 6.90796 8.805C7.31283 8.82172 7.71022 8.66702 7.99708 8.38018L8.74858 7.62868C8.81471 7.56255 8.84504 7.46865 8.83005 7.37635C8.81506 7.28404 8.75661 7.20455 8.67296 7.16271L7.61667 6.63456C7.54099 6.5967 7.48732 6.53081 7.46559 6.44901C7.44387 6.36722 7.45778 6.28337 7.50472 6.21296L7.56444 6.12338L7.98187 6.26253C8.41252 6.40613 8.87581 6.34332 9.25276 6.09025C9.62971 5.83719 9.86323 5.43222 9.89341 4.97922L9.93036 4.4249C9.94035 4.27564 9.83549 4.14317 9.68794 4.11857V4.11857Z" fill="#686868"/>
<path d="M2.49144 7.02814L0.0852152 9.43436C-0.0284101 9.54799 -0.0284101 9.7322 0.0852152 9.84582C0.142028 9.90264 0.216472 9.93103 0.290936 9.93103C0.365399 9.93103 0.439863 9.90264 0.496656 9.84581L2.90288 7.4396V7.02814H2.49144Z" fill="#686868"/>
</svg>
