<svg width="19" height="25" viewBox="0 0 19 25" fill="none" xmlns="http://www.w3.org/2000/svg">
<path d="M9.05405 0C4.06162 0 0 4.06162 0 9.054C0 15.2497 8.10249 24.3454 8.44746 24.7295C8.77149 25.0904 9.33721 25.0898 9.66065 24.7295C10.0056 24.3454 18.1081 15.2497 18.1081 9.054C18.108 4.06162 14.0464 0 9.05405 0ZM9.05405 13.6093C6.54224 13.6093 4.49878 11.5658 4.49878 9.054C4.49878 6.54219 6.54229 4.49873 9.05405 4.49873C11.5658 4.49873 13.6093 6.54224 13.6093 9.05405C13.6093 11.5659 11.5658 13.6093 9.05405 13.6093Z" fill="#0f6b2d"/>
</svg>
