<svg width="25" height="25" viewBox="0 0 25 25" fill="none" xmlns="http://www.w3.org/2000/svg">
<path d="M24.2849 19.6115C25.2369 20.5635 25.2369 22.1122 24.2849 23.0642C24.2836 23.0657 24.2821 23.067 24.2805 23.0686L22.6101 24.7182C22.4197 24.9061 22.1718 25 21.924 25C21.6719 25 21.4201 24.9031 21.229 24.7097C20.8502 24.3259 20.854 23.7075 21.2378 23.3285L22.2151 22.3632H6.543C4.38904 22.3632 2.63676 20.611 2.63676 18.457V2.76126L1.66249 3.72256C1.27854 4.10136 0.660178 4.09717 0.28138 3.71322C-0.0974189 3.32927 -0.0932228 2.71091 0.290726 2.33211L1.94058 0.704573C2.88986 -0.231933 4.43443 -0.231933 5.38372 0.704573L7.03357 2.33211C7.41752 2.71091 7.42172 3.32927 7.04292 3.71322C6.8518 3.90681 6.59984 4.0039 6.34769 4.0039C6.09993 4.0039 5.85216 3.91025 5.66181 3.72256L4.58988 2.66494V18.457C4.58988 19.5339 5.46611 20.4101 6.543 20.4101H22.3141L21.2378 19.3472C20.854 18.9682 20.85 18.3498 21.229 17.966C21.608 17.5825 22.2263 17.5785 22.6101 17.9575L24.2805 19.6071C24.2821 19.6087 24.2836 19.61 24.2849 19.6115ZM22.0703 0H9.42386C8.88312 0 8.44539 0.439452 8.4473 0.980184C8.44939 1.51806 8.88598 1.95312 9.42386 1.95312H22.0703C22.6097 1.95312 23.0469 2.39028 23.0469 2.92968V15.625C23.0469 16.1628 23.4819 16.5996 24.0198 16.6015C24.5605 16.6034 25 16.1657 25 15.625V2.92968C25 1.31168 23.6883 0 22.0703 0ZM14.3555 16.7427C14.8949 16.7427 15.332 16.3055 15.332 15.7661V11.4197C15.332 9.93879 14.1274 8.73411 12.6465 8.73411C11.9978 8.73411 11.4022 8.96528 10.9375 9.34961C10.4729 8.96528 9.87723 8.73411 9.22854 8.73411C8.85604 8.73411 8.50089 8.8106 8.17817 8.94831C8.00441 8.78924 7.77362 8.69139 7.51956 8.69139C6.98017 8.69139 6.543 9.12855 6.543 9.66795V15.7715C6.543 16.3109 6.98017 16.748 7.51956 16.748C8.05896 16.748 8.49612 16.3109 8.49612 15.7715V11.4197C8.49612 11.0159 8.82476 10.6872 9.22854 10.6872C9.63233 10.6872 9.96096 11.0159 9.96096 11.4197V15.7715C9.96096 16.3109 10.3981 16.748 10.9375 16.748C11.4769 16.748 11.9141 16.3109 11.9141 15.7715V11.4197C11.9141 11.0159 12.2427 10.6872 12.6465 10.6872C13.0503 10.6872 13.3789 11.0159 13.3789 11.4197V15.7661C13.3789 16.3055 13.8161 16.7427 14.3555 16.7427ZM18.7866 5.27343C18.7815 5.27343 18.7765 5.27419 18.7714 5.27419C18.7664 5.27419 18.7615 5.27343 18.7563 5.27343C17.5144 5.27343 16.5039 6.28508 16.5039 7.52848C16.5039 8.06769 16.9411 8.50504 17.4805 8.50504C18.0199 8.50504 18.457 8.06769 18.457 7.52848C18.457 7.36483 18.5942 7.22655 18.7563 7.22655C18.7615 7.22655 18.7664 7.22579 18.7716 7.22579C18.7765 7.22579 18.7815 7.22655 18.7866 7.22655C18.9421 7.22655 19.0744 7.35358 19.0851 7.50826C19.0659 7.57979 18.9161 8.0221 17.9804 9.0515C17.4 9.68969 16.8297 10.2094 16.8242 10.2144C16.5253 10.4856 16.4242 10.9129 16.5695 11.2892C16.7149 11.6657 17.0769 11.914 17.4805 11.914H20.1172C20.6566 11.914 21.0938 11.4769 21.0938 10.9375C21.0938 10.3981 20.6566 9.96092 20.1172 9.96092H19.7813C20.6484 8.94011 21.039 8.18041 21.039 7.52848C21.039 6.28508 20.0285 5.27343 18.7866 5.27343Z" fill="white"/>
</svg>
