<svg width="65" height="65" viewBox="0 0 65 65" fill="none" xmlns="http://www.w3.org/2000/svg">
<path d="M15.7422 13.7139C16.5852 13.7139 17.2656 14.3944 17.2656 15.2374C17.2656 16.0803 16.5852 16.7608 15.7422 16.7608H10.1562C8.47031 16.7608 7.10938 15.3999 7.10938 13.7139C7.10938 12.028 8.47031 10.6671 10.1562 10.6671C11.8422 10.6671 13.2031 12.028 13.2031 13.7139H15.7422Z" fill="#E6E9ED"/>
<path d="M32.5 8.6358C34.7445 8.6358 36.5625 10.4639 36.5625 12.6983C36.5625 14.9428 34.7344 16.7608 32.5 16.7608C30.2555 16.7608 28.4375 14.9428 28.4375 12.6983C28.4375 10.4538 30.2555 8.6358 32.5 8.6358Z" fill="#FFCE54"/>
<path d="M57.3828 13.7139C58.2156 13.7139 58.9062 14.3944 58.9062 15.2374C58.9062 16.0803 58.2156 16.7608 57.3828 16.7608H51.7969C50.1109 16.7608 48.75 15.3999 48.75 13.7139C48.75 12.028 50.1109 10.6671 51.7969 10.6671C53.4727 10.6671 54.8438 12.028 54.8438 13.7139H57.3828Z" fill="#E6E9ED"/>
<path d="M40.625 55.3545C36.6945 55.3545 33.5156 52.1756 33.5156 48.2451C33.5156 44.3248 36.6945 25.8912 40.625 25.8912C44.5453 25.8912 47.7344 44.3238 47.7344 48.2451C47.7344 52.1756 44.5453 55.3545 40.625 55.3545Z" fill="#8BC34A"/>
<path d="M56.875 55.3545C52.9445 55.3545 49.7656 52.1756 49.7656 48.2451C49.7656 44.3248 52.9445 25.8912 56.875 25.8912C60.8055 25.8912 63.9844 44.3238 63.9844 48.2451C63.9844 52.1756 60.8055 55.3545 56.875 55.3545Z" fill="#8BC34A"/>
<path d="M24.375 55.3545C20.4445 55.3545 17.2656 52.1756 17.2656 48.2451C17.2656 44.3248 20.4445 25.8912 24.375 25.8912C28.2953 25.8912 31.4844 44.3238 31.4844 48.2451C31.4844 52.1756 28.2953 55.3545 24.375 55.3545Z" fill="#8BC34A"/>
<path d="M8.125 55.3545C4.19453 55.3545 1.01562 52.1756 1.01562 48.2451C1.01562 44.3248 4.19453 25.8912 8.125 25.8912C12.0555 25.8912 15.2344 44.3238 15.2344 48.2451C15.2344 52.1756 12.0555 55.3545 8.125 55.3545Z" fill="#8BC34A"/>
<path d="M8.125 62.4579C7.56336 62.4579 7.10938 62.0039 7.10938 61.4423V46.2099C7.10938 45.6483 7.56336 45.1943 8.125 45.1943C8.68664 45.1943 9.14062 45.6483 9.14062 46.2099V61.4423C9.14062 62.0039 8.68664 62.4579 8.125 62.4579Z" fill="black"/>
<path d="M8.125 56.3712C3.64508 56.3712 0 52.7262 0 48.2462C0 45.6432 2.71172 24.8716 8.125 24.8716C13.5383 24.8716 16.25 45.6432 16.25 48.2462C16.25 52.7262 12.6049 56.3712 8.125 56.3712ZM8.125 26.9029C5.62656 26.9029 2.03125 42.8258 2.03125 48.2462C2.03125 51.6069 4.7643 54.34 8.125 54.34C11.4857 54.34 14.2188 51.6069 14.2188 48.2462C14.2188 42.8258 10.6234 26.9029 8.125 26.9029Z" fill="black"/>
<path d="M24.3701 62.4579C23.8085 62.4579 23.3545 62.0039 23.3545 61.4423V46.2099C23.3545 45.6483 23.8085 45.1943 24.3701 45.1943C24.9318 45.1943 25.3857 45.6483 25.3857 46.2099V61.4423C25.3857 62.0039 24.9318 62.4579 24.3701 62.4579Z" fill="black"/>
<path d="M24.3701 56.3712C19.8902 56.3712 16.2451 52.7262 16.2451 48.2462C16.2451 45.6432 18.9568 24.8716 24.3701 24.8716C29.7834 24.8716 32.4951 45.6432 32.4951 48.2462C32.4951 52.7262 28.85 56.3712 24.3701 56.3712ZM24.3701 26.9029C21.8717 26.9029 18.2764 42.8258 18.2764 48.2462C18.2764 51.6069 21.0094 54.34 24.3701 54.34C27.7308 54.34 30.4639 51.6069 30.4639 48.2462C30.4639 42.8258 26.8686 26.9029 24.3701 26.9029Z" fill="black"/>
<path d="M40.6221 62.4579C40.0604 62.4579 39.6064 62.0039 39.6064 61.4423V46.2099C39.6064 45.6483 40.0604 45.1943 40.6221 45.1943C41.1837 45.1943 41.6377 45.6483 41.6377 46.2099V61.4423C41.6377 62.0039 41.1837 62.4579 40.6221 62.4579Z" fill="black"/>
<path d="M40.6221 56.3712C36.1422 56.3712 32.4971 52.7262 32.4971 48.2462C32.4971 45.6432 35.2088 24.8716 40.6221 24.8716C46.0354 24.8716 48.7471 45.6432 48.7471 48.2462C48.7471 52.7262 45.102 56.3712 40.6221 56.3712ZM40.6221 26.9029C38.1236 26.9029 34.5283 42.8258 34.5283 48.2462C34.5283 51.6069 37.2614 54.34 40.6221 54.34C43.9828 54.34 46.7158 51.6069 46.7158 48.2462C46.7158 42.8258 43.1205 26.9029 40.6221 26.9029Z" fill="black"/>
<path d="M56.874 62.4579C56.3124 62.4579 55.8584 62.0039 55.8584 61.4423V46.2099C55.8584 45.6483 56.3124 45.1943 56.874 45.1943C57.4357 45.1943 57.8896 45.6483 57.8896 46.2099V61.4423C57.8896 62.0039 57.4357 62.4579 56.874 62.4579Z" fill="black"/>
<path d="M56.874 56.3712C52.3941 56.3712 48.749 52.7262 48.749 48.2462C48.749 45.6432 51.4607 24.8716 56.874 24.8716C62.2873 24.8716 64.999 45.6432 64.999 48.2462C64.999 52.7262 61.3539 56.3712 56.874 56.3712ZM56.874 26.9029C54.3756 26.9029 50.7803 42.8258 50.7803 48.2462C50.7803 51.6069 53.5133 54.34 56.874 54.34C60.2347 54.34 62.9678 51.6069 62.9678 48.2462C62.9678 42.8258 59.3725 26.9029 56.874 26.9029Z" fill="black"/>
<path d="M63.9844 62.4629H1.01562C0.453984 62.4629 0 62.0089 0 61.4473C0 60.8857 0.453984 60.4317 1.01562 60.4317H63.9844C64.546 60.4317 65 60.8857 65 61.4473C65 62.0089 64.546 62.4629 63.9844 62.4629Z" fill="black"/>
<path d="M32.4961 17.7764C31.1402 17.7764 29.8646 17.2473 28.9058 16.2875C27.9471 15.3278 27.4179 14.0521 27.4189 12.6963C27.42 9.89721 29.699 7.62018 32.4981 7.62018C33.854 7.62018 35.1296 8.14932 36.0883 9.10908C37.0471 10.0688 37.5762 11.3445 37.5752 12.7003C37.5742 15.4994 35.2951 17.7764 32.4961 17.7764ZM32.4981 9.65143C30.8182 9.65143 29.4512 11.0174 29.4502 12.6963C29.4502 13.5108 29.7671 14.2766 30.3429 14.8514C30.9178 15.4273 31.6825 15.7452 32.4961 15.7452C34.1759 15.7452 35.5429 14.3792 35.544 12.7003C35.544 11.8858 35.2271 11.12 34.6512 10.5452C34.0764 9.9683 33.3116 9.65143 32.4981 9.65143Z" fill="black"/>
<path d="M32.4932 22.8514C31.9315 22.8514 31.4775 22.3964 31.4775 21.8348L31.4786 19.8036C31.4786 19.2419 31.9336 18.7879 32.4942 18.7879H32.4952C33.0558 18.7879 33.5098 19.2429 33.5098 19.8036L33.5088 21.8368C33.5088 22.3975 33.0538 22.8514 32.4932 22.8514Z" fill="black"/>
<path d="M32.4981 6.6005C31.9364 6.6005 31.4824 6.1455 31.4824 5.58488L31.4834 3.5516C31.4834 2.99097 31.9384 2.53699 32.4991 2.53699C33.0607 2.53699 33.5147 2.99199 33.5147 3.55363L33.5137 5.58488C33.5137 6.14652 33.0587 6.6005 32.4981 6.6005Z" fill="black"/>
<path d="M38.9578 20.1764C38.6978 20.1764 38.4378 20.0769 38.2398 19.8788L36.8037 18.4417C36.4066 18.0446 36.4066 17.4017 36.8037 17.0056C37.2008 16.6085 37.8427 16.6085 38.2398 17.0056L39.6759 18.4427C40.073 18.8399 40.073 19.4827 39.6759 19.8788C39.4778 20.0779 39.2178 20.1764 38.9578 20.1764Z" fill="black"/>
<path d="M27.4715 8.6814C27.2115 8.6814 26.9515 8.58187 26.7535 8.38382L25.3174 6.94773C24.9203 6.55062 24.9203 5.90875 25.3174 5.51164C25.7145 5.11453 26.3563 5.11453 26.7535 5.51164L28.1896 6.94773C28.5867 7.34484 28.5867 7.98672 28.1896 8.38382C27.9915 8.58187 27.7315 8.6814 27.4715 8.6814Z" fill="black"/>
<path d="M41.6387 13.714L39.6064 13.713C39.0458 13.713 38.5918 13.258 38.5918 12.6963C38.5918 12.1357 39.0468 11.6817 39.6074 11.6817H39.6084L41.6397 11.6827C42.2003 11.6827 42.6543 12.1377 42.6543 12.6983C42.6543 13.26 42.1993 13.714 41.6387 13.714Z" fill="black"/>
<path d="M25.3887 13.7079H23.3574C22.7958 13.7079 22.3418 13.254 22.3418 12.6923C22.3418 12.1307 22.7958 11.6767 23.3574 11.6767H25.3887C25.9503 11.6767 26.4043 12.1307 26.4043 12.6923C26.4043 13.254 25.9503 13.7079 25.3887 13.7079Z" fill="black"/>
<path d="M37.5276 8.68357C37.2676 8.68357 37.0076 8.58404 36.8096 8.38599C36.4124 7.98888 36.4124 7.34599 36.8096 6.94989L38.2457 5.51481C38.6428 5.1177 39.2846 5.1177 39.6818 5.51481C40.0789 5.91192 40.0789 6.55481 39.6818 6.95091L38.2457 8.38599C38.0476 8.58404 37.7876 8.68357 37.5276 8.68357Z" fill="black"/>
<path d="M26.0335 20.1702C25.7735 20.1702 25.5135 20.0707 25.3154 19.8727C24.9183 19.4756 24.9183 18.8337 25.3154 18.4366L26.7515 17.0005C27.1486 16.6034 27.7905 16.6034 28.1876 17.0005C28.5847 17.3976 28.5847 18.0395 28.1876 18.4366L26.7515 19.8727C26.5535 20.0717 26.2935 20.1702 26.0335 20.1702Z" fill="black"/>
<path d="M51.793 17.7725C49.5525 17.7725 47.7305 15.9504 47.7305 13.71C47.7305 11.4695 49.5525 9.64746 51.793 9.64746C54.0334 9.64746 55.8555 11.4695 55.8555 13.71C55.8555 14.2716 55.4015 14.7256 54.8398 14.7256C54.2782 14.7256 53.8242 14.2716 53.8242 13.71C53.8242 12.5897 52.9132 11.6787 51.793 11.6787C50.6727 11.6787 49.7617 12.5897 49.7617 13.71C49.7617 14.8302 50.6727 15.7412 51.793 15.7412C52.3546 15.7412 52.8086 16.1952 52.8086 16.7568C52.8086 17.3185 52.3546 17.7725 51.793 17.7725Z" fill="black"/>
<path d="M57.3789 17.7725C56.8173 17.7725 56.3633 17.3185 56.3633 16.7568C56.3633 16.1952 56.8173 15.7412 57.3789 15.7412C57.6582 15.7412 57.8867 15.5127 57.8867 15.2334C57.8867 14.9541 57.6582 14.7256 57.3789 14.7256C56.8173 14.7256 56.3633 14.2716 56.3633 13.71C56.3633 13.1483 56.8173 12.6943 57.3789 12.6943C58.7795 12.6943 59.918 13.8329 59.918 15.2334C59.918 16.634 58.7795 17.7725 57.3789 17.7725Z" fill="black"/>
<path d="M57.3789 17.7725H51.793C51.2313 17.7725 50.7773 17.3185 50.7773 16.7568C50.7773 16.1952 51.2313 15.7412 51.793 15.7412H57.3789C57.9405 15.7412 58.3945 16.1952 58.3945 16.7568C58.3945 17.3185 57.9405 17.7725 57.3789 17.7725Z" fill="black"/>
<path d="M57.3789 14.7256H54.8398C54.2782 14.7256 53.8242 14.2716 53.8242 13.71C53.8242 13.1483 54.2782 12.6943 54.8398 12.6943H57.3789C57.9405 12.6943 58.3945 13.1483 58.3945 13.71C58.3945 14.2716 57.9405 14.7256 57.3789 14.7256Z" fill="black"/>
<path d="M10.1562 17.7725C7.91578 17.7725 6.09375 15.9504 6.09375 13.71C6.09375 11.4695 7.91578 9.64746 10.1562 9.64746C12.3967 9.64746 14.2188 11.4695 14.2188 13.71C14.2188 14.2716 13.7648 14.7256 13.2031 14.7256C12.6415 14.7256 12.1875 14.2716 12.1875 13.71C12.1875 12.5897 11.2765 11.6787 10.1562 11.6787C9.03602 11.6787 8.125 12.5897 8.125 13.71C8.125 14.8302 9.03602 15.7412 10.1562 15.7412C10.7179 15.7412 11.1719 16.1952 11.1719 16.7568C11.1719 17.3185 10.7179 17.7725 10.1562 17.7725Z" fill="black"/>
<path d="M15.7422 17.7725C15.1805 17.7725 14.7266 17.3185 14.7266 16.7568C14.7266 16.1952 15.1805 15.7412 15.7422 15.7412C16.0215 15.7412 16.25 15.5127 16.25 15.2334C16.25 14.9541 16.0215 14.7256 15.7422 14.7256C15.1805 14.7256 14.7266 14.2716 14.7266 13.71C14.7266 13.1483 15.1805 12.6943 15.7422 12.6943C17.1427 12.6943 18.2812 13.8329 18.2812 15.2334C18.2812 16.634 17.1427 17.7725 15.7422 17.7725Z" fill="black"/>
<path d="M15.7422 17.7725H10.1562C9.59461 17.7725 9.14062 17.3185 9.14062 16.7568C9.14062 16.1952 9.59461 15.7412 10.1562 15.7412H15.7422C16.3038 15.7412 16.7578 16.1952 16.7578 16.7568C16.7578 17.3185 16.3038 17.7725 15.7422 17.7725Z" fill="black"/>
<path d="M15.7422 14.7256H13.2031C12.6415 14.7256 12.1875 14.2716 12.1875 13.71C12.1875 13.1483 12.6415 12.6943 13.2031 12.6943H15.7422C16.3038 12.6943 16.7578 13.1483 16.7578 13.71C16.7578 14.2716 16.3038 14.7256 15.7422 14.7256Z" fill="black"/>
</svg>
