<svg width="65" height="65" viewBox="0 0 65 65" fill="none" xmlns="http://www.w3.org/2000/svg">
<g clip-path="url(#clip0)">
<path d="M40.0519 7.26734C36.2819 5.64233 30.6377 6.29234 30.6377 6.29234C30.6377 6.29234 32.3385 11.8281 34.5919 14.4716C35.7024 15.6819 37.3834 16.1925 38.9794 15.8041L40.0519 7.26734Z" fill="#558B30"/>
<path d="M63.9165 1.44031C63.9165 1.44031 60.4065 14.1586 55.7698 20.2686C53.7439 22.8493 50.4416 24.0756 47.2223 23.4429C44.991 23.0857 42.9331 22.0226 41.3506 20.4096C37.3964 16.347 37.0931 9.29453 41.4806 5.57874C45.4456 2.23123 51.7723 1.31044 56.6906 1.15873H56.7556C59.1463 1.07608 61.5397 1.17015 63.9165 1.44031Z" fill="#558B30"/>
<path d="M60.6666 1.44032C60.6666 1.44032 57.1566 14.1586 52.5198 20.2687C51.2288 21.9696 49.3311 23.1067 47.2223 23.4429C44.991 23.0857 42.9331 22.0226 41.3506 20.4096C37.3964 16.3471 37.0931 9.29454 41.4806 5.57875C45.4456 2.23124 51.7723 1.31045 56.6906 1.15874H56.7556C59.1173 1.23453 60.6666 1.44032 60.6666 1.44032Z" fill="#8BC34A"/>
<path d="M54.1665 46.0088C53.6777 47.496 52.8029 48.8269 51.6315 49.8655C50.4657 50.9125 49.0466 51.6369 47.5148 51.9672L34.9048 54.6755C33.7928 54.9116 32.6463 54.9374 31.5248 54.7513L31.373 54.7296C31.4705 54.7079 31.5573 54.6971 31.6546 54.6754L44.2647 51.9671C45.7965 51.6369 47.2154 50.9123 48.3814 49.8653C49.5528 48.8267 50.4276 47.4959 50.9164 46.0086C50.9118 44.1246 49.5215 42.5311 47.6556 42.2711C47.6643 42.2545 47.6681 42.2357 47.6664 42.2169C47.6668 41.0675 47.2102 39.9651 46.3975 39.1524C45.5847 38.3396 44.4824 37.8832 43.3329 37.8835C43.0305 37.8832 42.729 37.9158 42.4337 37.981C41.3132 35.7712 39.2407 34.1979 36.8112 33.7127C37.3533 33.6034 37.9049 33.549 38.4579 33.5502C41.5085 33.5494 44.3011 35.2618 45.6837 37.981C45.979 37.9158 46.2806 37.8832 46.583 37.8835C47.7324 37.8831 48.8347 38.3396 49.6475 39.1524C50.4602 39.9651 50.9166 41.0675 50.9164 42.2169C50.918 42.2356 50.9143 42.2545 50.9056 42.2711C52.7717 42.5312 54.1619 44.1248 54.1665 46.0088Z" fill="#F57C00"/>
<path d="M50.9164 46.0087C50.4276 47.4959 49.5528 48.8268 48.3814 49.8654C47.2156 50.9124 45.7965 51.6368 44.2647 51.9671L31.6546 54.6754C31.5571 54.6971 31.4704 54.7079 31.373 54.7296L23.3455 53.3863C19.8516 52.7911 17.0295 50.2062 16.1305 46.778L14.083 38.9672C14.0817 36.6139 15.6012 34.5294 17.8422 33.8105C18.2114 33.6911 18.593 33.6148 18.9797 33.583C19.1523 33.5614 19.3259 33.5505 19.4997 33.5505C20.3033 33.555 21.0957 33.7401 21.818 34.0922C22.7029 32.8618 23.9908 31.9802 25.458 31.6005C25.9877 31.4565 26.5342 31.3836 27.083 31.3838C27.3512 31.3853 27.6189 31.4033 27.8847 31.438C28.8331 31.5527 29.7437 31.8785 30.5498 32.3913C30.8232 31.6978 31.3234 31.1174 31.969 30.7446C32.4568 30.4531 33.0148 30.2995 33.5832 30.3003C34.4454 30.2992 35.2728 30.6412 35.8826 31.251C36.4923 31.8607 36.8343 32.6881 36.8332 33.5503C36.8313 33.6051 36.824 33.6595 36.8115 33.7128C39.241 34.1982 41.3135 35.7715 42.434 37.9811C42.7293 37.916 43.0308 37.8834 43.3332 37.8836C44.4826 37.8833 45.585 38.3398 46.3977 39.1525C47.2105 39.9653 47.6669 41.0676 47.6666 42.2171C47.6683 42.2357 47.6646 42.2547 47.6558 42.2713C49.5215 42.5312 50.9118 44.1247 50.9164 46.0087Z" fill="#FF9801"/>
<path d="M10.833 40.5921V60.0922C10.823 62.1821 9.13122 63.8738 7.04131 63.8839H4.87472C2.78164 63.8816 1.08529 62.1854 1.08301 60.0922V40.5921C1.08529 38.499 2.78152 36.8027 4.87472 36.8004H7.04144C8.5612 36.8023 9.93344 37.71 10.5297 39.1079C10.7308 39.5769 10.834 40.0819 10.833 40.5921Z" fill="#0377BC"/>
<path d="M7.58302 40.5921V60.0922C7.60194 61.0377 7.34333 61.9679 6.83907 62.768C6.47319 63.4193 5.8011 63.8398 5.05525 63.8837H3.61078C2.21696 63.8837 1.08301 62.1829 1.08301 60.092V40.592C1.08301 38.5012 2.21696 36.8003 3.61078 36.8003H5.05525C6.09525 36.8003 6.99802 37.7536 7.38078 39.1078C7.51688 39.5908 7.58493 40.0904 7.58302 40.5921Z" fill="#2296F3"/>
<path d="M62.4861 49.3347L42.1844 61.6955C41.2204 62.2852 40.1349 62.6483 39.0101 62.7572C38.755 62.7882 38.498 62.8026 38.2409 62.8005H9.7493L9.7168 62.768C10.4326 62.0617 10.8346 61.0977 10.8326 60.0922V40.5921C10.8347 40.4143 10.8203 40.2365 10.7893 40.0614V40.0506C10.7489 39.7254 10.6613 39.4079 10.5293 39.1081L10.8218 38.9673H13.866C16.1102 38.9704 18.2869 39.7342 20.041 41.134C21.7951 42.5338 23.9719 43.2975 26.216 43.3007H31.8818C33.7866 43.2979 35.5523 44.298 36.5293 45.9332L36.6268 46.0957C37.5504 47.6395 37.3048 49.6137 36.0311 50.884H38.5769C39.0448 50.8843 39.5097 50.8073 39.9526 50.6565L56.7877 45.0448L60.0052 43.9723C61.2189 43.5738 62.5516 43.992 63.3202 45.0123V45.0231C63.8237 45.6917 64.0203 46.5425 63.8613 47.3643C63.7023 48.186 63.2026 48.902 62.4861 49.3347Z" fill="#4E342E"/>
<path d="M59.2686 50.4179L39.0103 62.7572C38.7551 62.7881 38.4981 62.8026 38.2411 62.8005H9.7493L9.7168 62.768C10.4326 62.0617 10.8346 61.0976 10.8326 60.0922V40.5921C10.8326 40.5054 10.8326 39.7688 10.8218 38.9671H13.866C16.1102 38.9703 18.2869 39.734 20.041 41.1338C21.7951 42.5336 23.9719 43.2974 26.216 43.3005H26.7793L28.6643 44.3838C30.5691 44.381 32.3348 45.3812 33.3118 47.0163L33.4093 47.1788C34.3329 48.7226 34.0873 50.6968 32.8136 51.9671H35.3593C35.8273 51.9674 36.2922 51.8906 36.7351 51.7396L56.7877 45.0554C58.0014 44.6569 59.3341 45.0751 60.1027 46.0954V46.1062C60.6062 46.7749 60.8028 47.6256 60.6439 48.4475C60.4849 49.2693 59.9851 49.9853 59.2686 50.4179Z" fill="#795548"/>
<path d="M59.6622 42.9491L55.0062 44.5012C54.5218 43.0489 53.3879 41.9053 51.9398 41.4083C51.5198 38.6421 49.0637 36.6499 46.2703 36.8099C44.4626 33.9076 41.1964 32.2451 37.7861 32.4913C37.4166 31.0468 36.332 29.8928 34.9132 29.4344C35.9261 26.1391 37.7346 23.1436 40.1788 20.7123C40.3095 20.8619 40.4318 21.0192 40.5701 21.1612C42.7511 23.3872 45.7311 24.6494 48.8474 24.6673C49.0669 24.6673 49.2876 24.6609 49.5071 24.6472C52.3154 24.5198 54.9233 23.1557 56.6297 20.9217C61.346 14.7178 64.816 2.2505 64.961 1.72263C65.0444 1.42048 64.9929 1.097 64.8196 0.835731C64.6463 0.574461 64.3684 0.40117 64.0575 0.360545C63.419 0.275867 48.328 -1.6184 40.7838 4.75313C40.2508 5.20293 39.7675 5.7082 39.3418 6.26058C36.3714 5.44198 33.2732 5.19099 30.2097 5.52069C29.8899 5.55751 29.6031 5.73474 29.4269 6.00413C29.2507 6.27353 29.2033 6.60729 29.2978 6.91515C29.3703 7.15001 31.0915 12.6974 33.4597 15.4755C34.5092 16.6659 36.0302 17.3332 37.6169 17.2994C37.7723 17.2994 37.9297 17.2875 38.087 17.2757C38.3111 17.8368 38.5764 18.3806 38.8807 18.9026C35.9336 21.7627 33.8022 25.3568 32.706 29.3147C31.6807 29.5319 30.7678 30.1104 30.1335 30.9448C27.1525 29.628 23.6633 30.3707 21.4769 32.7871C20.8393 32.5757 20.172 32.4677 19.5002 32.4671C16.3317 32.4724 13.6281 34.76 13.098 37.8838H11.0914C10.1879 36.5307 8.66863 35.7179 7.04172 35.7171H4.87501C2.18385 35.72 0.00291993 37.9009 0 40.5921V60.0921C0.00291993 62.7833 2.18385 64.9642 4.87501 64.9671H7.04172C8.14469 64.9624 9.21262 64.58 10.068 63.8838H38.2415C39.8311 63.884 41.3901 63.4467 42.7478 62.6201L63.054 50.2596C64.8146 49.1855 65.4889 46.9613 64.6209 45.0907C63.7529 43.2199 61.6192 42.2983 59.6622 42.9491ZM42.1813 6.40873C46.3289 2.90698 53.3759 2.2166 58.2879 2.2166C60.0452 2.2166 61.5294 2.30496 62.5097 2.38431C61.5082 5.69678 58.537 14.8326 54.9052 19.6109C53.5772 21.339 51.5527 22.3911 49.3753 22.4847C46.6626 22.628 44.0198 21.5953 42.1231 19.6505C41.9852 19.5088 41.8616 19.3535 41.7331 19.2027C44.0029 17.1443 46.5201 15.3763 49.2268 13.9396C49.7642 13.6766 49.9866 13.0276 49.7236 12.4902C49.4605 11.9528 48.8115 11.7304 48.2741 11.9934C45.4678 13.4508 42.8549 15.254 40.4965 17.3606C39.6908 15.8019 39.3069 14.0596 39.3826 12.3066C39.4482 10.0355 40.4635 7.89599 42.1813 6.40873ZM35.1121 14.073C33.684 12.0909 32.5705 9.9002 31.8108 7.57835C33.9558 7.45368 36.1073 7.6549 38.1921 8.1749C37.6123 9.4419 37.2817 10.8086 37.2185 12.2005C37.1768 13.1822 37.2562 14.1653 37.4553 15.1276C36.5608 15.1209 35.7103 14.7381 35.1121 14.073ZM19.5 34.6336C20.1409 34.6376 20.7727 34.7855 21.3487 35.0663C21.8212 35.2905 22.3863 35.1456 22.6928 34.722C24.3598 32.392 27.5576 31.7721 29.9746 33.3102C30.2492 33.4843 30.5875 33.5258 30.8961 33.4233C31.2047 33.3207 31.4509 33.0849 31.5667 32.7811C31.8716 31.9722 32.6331 31.426 33.4971 31.3966C33.5261 31.3989 33.5554 31.4052 33.5842 31.4052C33.6114 31.4052 33.6358 31.3935 33.6627 31.3915C34.8063 31.4262 35.7234 32.3482 35.752 33.4919C35.7478 33.522 35.7366 33.6247 35.7346 33.6548C35.7155 33.9906 35.8535 34.3163 36.1081 34.5361C36.3626 34.756 36.7049 34.8451 37.0343 34.7774C37.5029 34.6816 37.98 34.6335 38.4584 34.6335C41.1035 34.6298 43.5258 36.1143 44.7235 38.4728C44.9463 38.9087 45.4339 39.1406 45.9127 39.0383C46.862 38.8438 47.8488 39.0809 48.606 39.6858C49.3633 40.2906 49.8127 41.2004 49.8329 42.1693C49.8302 42.2053 49.8282 42.2418 49.8282 42.2709C49.8283 42.8101 50.2249 43.267 50.7586 43.3432C51.7783 43.4937 52.6247 44.2086 52.9437 45.1887L39.6094 49.6338C39.278 49.7443 38.931 49.8005 38.5816 49.8004H37.9592C38.4738 48.3894 38.3252 46.8217 37.5543 45.5326L37.4581 45.3734C36.2793 43.42 34.1664 42.2233 31.8848 42.2171H26.2185C24.2196 42.2145 22.2808 41.5344 20.7183 40.2879C19.1513 39.0413 17.2739 38.2458 15.2884 37.9872C15.7436 36.0272 17.4879 34.6383 19.5 34.6336ZM4.87501 62.8004C3.38001 62.7986 2.16836 61.5871 2.16671 60.0921V40.5921C2.16849 39.0971 3.38001 37.8854 4.87501 37.8838H7.04172C8.53672 37.8856 9.74836 39.0971 9.75002 40.5921V60.0921C9.74824 61.5871 8.53672 62.7986 7.04172 62.8004H4.87501ZM62.7991 47.1556C62.7008 47.6785 62.3838 48.1345 61.9278 48.4087L41.6211 60.7698C40.6028 61.3896 39.4336 61.7174 38.2415 61.7171H11.6172C11.81 61.1967 11.9113 60.647 11.9167 60.0921V40.5921C11.9089 40.4107 11.8906 40.2297 11.862 40.0504H13.865C15.8638 40.0529 17.8027 40.733 19.3652 41.9795C21.3119 43.5331 23.728 44.3806 26.2185 44.3838H31.8848C33.4062 44.3882 34.815 45.1864 35.6009 46.4891L35.6971 46.6483C36.2886 47.634 36.2251 48.8797 35.5366 49.8004H28.9521C26.8132 49.7982 24.7217 50.4316 22.9435 51.62L22.1495 52.149C21.8256 52.3628 21.6406 52.7336 21.665 53.121C21.6892 53.5084 21.919 53.8532 22.2672 54.0248C22.6155 54.1964 23.0288 54.1685 23.3509 53.9516L24.1449 53.4226C25.5678 52.4719 27.2409 51.9652 28.9522 51.967H38.5816C39.1638 51.967 39.7421 51.8731 40.2945 51.6892L54.1164 47.0819C54.134 47.0828 54.1489 47.0921 54.1667 47.0921C54.4097 47.0878 54.6436 47.0002 54.8299 46.844L60.3478 45.0047C61.12 44.7469 61.9705 45.0142 62.4562 45.6675C62.7778 46.0918 62.9025 46.6334 62.7991 47.1556Z" fill="black"/>
<path d="M24.7544 38.9454C25.3406 39.0645 25.9126 38.6859 26.0319 38.0996C26.1883 37.3441 26.8532 36.8019 27.6247 36.8004C27.9762 36.7992 28.3183 36.9131 28.599 37.1246C29.0774 37.4813 29.7541 37.384 30.1124 36.907C30.4708 36.43 30.376 35.753 29.9003 35.3928C29.2451 34.898 28.4458 34.6314 27.6247 34.6338C25.8238 34.6378 24.2727 35.9043 23.9086 37.668C23.7895 38.2542 24.1681 38.826 24.7544 38.9454Z" fill="black"/>
<path d="M37.432 39.2352C38.0768 38.812 38.9299 38.8989 39.4765 39.443C39.7259 39.6908 39.8874 40.0135 39.9362 40.3617C40.0122 40.8951 40.4686 41.2914 41.0074 41.2922C41.0591 41.2921 41.1106 41.2885 41.1619 41.2817C41.7543 41.197 42.166 40.6484 42.0818 40.056C41.8977 38.7692 41.0674 37.6663 39.8817 37.1335C38.696 36.6006 37.3199 36.7122 36.2356 37.4291C35.9123 37.6425 35.7275 38.0125 35.751 38.3992C35.7746 38.7859 36.003 39.1306 36.3499 39.3031C36.6968 39.4757 37.1094 39.4497 37.432 39.2352Z" fill="black"/>
</g>
<defs>
<clipPath id="clip0">
<rect width="65" height="65" fill="white"/>
</clipPath>
</defs>
</svg>
