<svg width="35" height="35" viewBox="0 0 35 35" fill="none" xmlns="http://www.w3.org/2000/svg">
<path d="M10.8864 20.4336L18.9897 28.537L28.5027 19.024L20.3993 10.9207L10.8864 20.4336Z" fill="#0F6B2D"/>
<path d="M34.2676 17.8659L17.1104 0.708703C16.6374 0.264581 16.0162 0.0121825 15.3675 0.000610352H15.3131L1.64168 0.381867H1.53273L5.89012 4.73926C6.62689 4.18599 7.52899 3.89814 8.45008 3.92222C10.9469 3.92243 12.9707 5.94663 12.9705 8.4433C12.9703 10.9401 10.9461 12.964 8.44945 12.9637C5.95268 12.9635 3.9288 10.9393 3.92901 8.44267C3.92901 8.42463 3.92911 8.4066 3.92932 8.38856C3.91743 7.48604 4.20465 6.60509 4.74636 5.88303L0.334542 1.47122V1.63458L0.0077067 15.2515C-0.0493201 15.9282 0.212461 16.5929 0.715799 17.0489L17.873 34.315C18.8554 35.2284 20.3764 35.2284 21.3589 34.315L34.2676 21.4063C35.2441 20.4281 35.2441 18.844 34.2676 17.8659ZM30.237 19.6089L19.5614 30.2845C19.4358 30.4594 19.2321 30.5614 19.0168 30.5568C18.7892 30.5478 18.5742 30.45 18.4177 30.2845L9.15827 21.0251C8.84687 20.7074 8.84687 20.199 9.15827 19.8813L19.8339 9.20571C20.1124 8.88982 20.5943 8.85958 20.9102 9.13815C20.9341 9.15921 20.9567 9.18183 20.9777 9.20571L30.2371 18.4651C30.5509 18.7832 30.5529 19.2926 30.237 19.6089Z" fill="#0F6B2D"/>
<path d="M8.44978 11.3296C10.0441 11.3296 11.3366 10.0372 11.3366 8.44282C11.3366 6.84849 10.0441 5.55603 8.44978 5.55603C6.85545 5.55603 5.56299 6.84849 5.56299 8.44282C5.56299 10.0372 6.85545 11.3296 8.44978 11.3296Z" fill="#0F6B2D"/>
</svg>
