<svg width="25" height="25" viewBox="0 0 25 25" fill="none" xmlns="http://www.w3.org/2000/svg">
<path d="M20.2351 6.28589C20.0648 4.68774 19.3586 3.20728 18.205 2.05679C16.875 0.73042 15.1082 0 13.2299 0C10.3797 0 7.8791 1.71221 6.7793 4.20884C7.51245 3.94468 8.2998 3.80103 9.11557 3.80103C10.9407 3.80103 12.6638 4.50435 13.9674 5.7814C15.2688 7.0564 16.0076 8.76089 16.0475 10.5808L16.048 10.6274V11.8507C16.048 13.5149 15.5149 15.0966 14.5303 16.4021L16.1965 16.3995C15.902 17.7995 14.6913 18.8662 13.2231 18.94V17.7534C12.7691 18.1203 12.2789 18.4305 11.7612 18.6805V21.3535C10.5691 21.2724 9.57016 20.4783 9.18843 19.395C8.95112 19.4172 8.71162 19.4288 8.47031 19.4288L7.67622 19.4275C8.11811 21.3084 9.76933 22.7281 11.7612 22.8182V25H13.2231V20.4028C15.4998 20.3243 17.3673 18.6075 17.6807 16.3972L19.9419 16.3937C22.731 16.3937 25 14.1247 25 11.3356C25 8.64497 22.8883 6.43823 20.2351 6.28589Z" fill="#FEFEFE"/>
<path d="M8.47026 18.0127C10.1143 18.0127 11.6602 17.3731 12.8238 16.2113C13.9898 15.0471 14.632 13.4984 14.632 11.8507V10.6273L14.6319 10.6118C14.6001 9.16376 14.0123 7.80751 12.9765 6.79286C11.9392 5.77665 10.568 5.21698 9.11563 5.21698C6.32095 5.21698 4.0001 7.31176 3.64502 10.0135C1.60464 10.1956 0 11.9148 0 14.0017C0 16.2092 1.79575 18.0053 4.00313 18.0059L8.4605 18.0127H8.47026Z" fill="#FEFEFE"/>
</svg>
