<svg width="35" height="35" viewBox="0 0 35 35" fill="none" xmlns="http://www.w3.org/2000/svg">
<path d="M33.999 27.4562C35.3317 28.7889 35.3317 30.9572 33.999 32.2899C33.9971 32.2921 33.995 32.2939 33.9928 32.2961L31.6542 34.6056C31.3877 34.8686 31.0406 35 30.6937 35C30.3407 35 29.9882 34.8643 29.7206 34.5936C29.1903 34.0563 29.1957 33.1906 29.7329 32.66L31.1012 31.3086H9.16022C6.14466 31.3086 3.69147 28.8554 3.69147 25.8398V3.86578L2.32749 5.2116C1.78996 5.74192 0.924252 5.73605 0.393932 5.19852C-0.136387 4.66099 -0.130512 3.79528 0.407017 3.26496L2.71682 0.986404C4.04582 -0.324707 6.20822 -0.324707 7.53722 0.986404L9.84702 3.26496C10.3845 3.79528 10.3904 4.66099 9.8601 5.19852C9.59254 5.46955 9.2398 5.60547 8.88678 5.60547C8.53991 5.60547 8.19304 5.47436 7.92655 5.2116L6.42585 3.73093V25.8398C6.42585 27.3475 7.65258 28.5742 9.16022 28.5742H31.2398L29.7329 27.0861C29.1957 26.5555 29.1901 25.6898 29.7206 25.1525C30.2512 24.6155 31.1169 24.6099 31.6542 25.1405L33.9928 27.45C33.995 27.4522 33.9971 27.454 33.999 27.4562ZM30.8985 0H13.1934C12.4364 0 11.8236 0.615234 11.8262 1.37226C11.8292 2.12528 12.4404 2.73438 13.1934 2.73438H30.8985C31.6537 2.73438 32.2657 3.34641 32.2657 4.10156V21.875C32.2657 22.628 32.8748 23.2395 33.6278 23.2422C34.3848 23.2449 35.0001 22.632 35.0001 21.875V4.10156C35.0001 1.83636 33.1637 0 30.8985 0ZM20.0977 23.4398C20.8529 23.4398 21.4649 22.8278 21.4649 22.0726V15.9875C21.4649 13.9143 19.7784 12.2278 17.7051 12.2278C16.797 12.2278 15.963 12.5514 15.3126 13.0895C14.6621 12.5514 13.8282 12.2278 12.92 12.2278C12.3985 12.2278 11.9013 12.3349 11.4495 12.5277C11.2062 12.305 10.8831 12.168 10.5274 12.168C9.77225 12.168 9.16022 12.78 9.16022 13.5352V22.0801C9.16022 22.8352 9.77225 23.4473 10.5274 23.4473C11.2826 23.4473 11.8946 22.8352 11.8946 22.0801V15.9875C11.8946 15.4222 12.3547 14.9622 12.92 14.9622C13.4853 14.9622 13.9454 15.4222 13.9454 15.9875V22.0801C13.9454 22.8352 14.5574 23.4473 15.3126 23.4473C16.0677 23.4473 16.6798 22.8352 16.6798 22.0801V15.9875C16.6798 15.4222 17.1398 14.9622 17.7051 14.9622C18.2704 14.9622 18.7305 15.4222 18.7305 15.9875V22.0726C18.7305 22.8278 19.3426 23.4398 20.0977 23.4398ZM26.3013 7.38281C26.2941 7.38281 26.2872 7.38388 26.28 7.38388C26.273 7.38388 26.2661 7.38281 26.2589 7.38281C24.5203 7.38281 23.1055 8.79913 23.1055 10.5399C23.1055 11.2948 23.7176 11.9071 24.4727 11.9071C25.2279 11.9071 25.8399 11.2948 25.8399 10.5399C25.8399 10.3108 26.0319 10.1172 26.2589 10.1172C26.2661 10.1172 26.273 10.1161 26.2802 10.1161C26.2872 10.1161 26.2941 10.1172 26.3013 10.1172C26.519 10.1172 26.7043 10.295 26.7192 10.5116C26.6923 10.6117 26.4826 11.231 25.1726 12.6721C24.36 13.5656 23.5616 14.2933 23.5539 14.3002C23.1354 14.6799 22.9939 15.2781 23.1974 15.8049C23.4009 16.332 23.9077 16.6797 24.4727 16.6797H28.1641C28.9193 16.6797 29.5313 16.0677 29.5313 15.3125C29.5313 14.5573 28.9193 13.9453 28.1641 13.9453H27.6939C28.9078 12.5162 29.4547 11.4526 29.4547 10.5399C29.4547 8.79913 28.04 7.38281 26.3013 7.38281Z" fill="#0F6B2D"/>
</svg>
