<svg width="35" height="35" viewBox="0 0 35 35" fill="none" xmlns="http://www.w3.org/2000/svg">
<path d="M11.6667 1.75V0.583309C11.6667 0.261132 11.4055 0 11.0834 0H0.583378C0.261201 0 0 0.261132 0 0.583309V1.75C0 2.07217 0.261132 2.33331 0.583309 2.33331H11.0833C11.4055 2.33331 11.6667 2.07217 11.6667 1.75Z" fill="#0F6B2D"/>
<path d="M17.6982 25.5383C14.5249 24.3425 12.209 21.7291 11.7599 18.6025C11.727 18.3056 11.4752 18.0815 11.1766 18.0833H3.00982C2.68771 18.0791 2.42316 18.3369 2.41899 18.6591C2.41858 18.6929 2.42104 18.7266 2.42644 18.76C2.91644 21.455 5.41893 22.6333 6.99974 23.87C9.22223 25.62 10.8672 28.5367 10.0389 34.3233C9.98738 34.6413 10.2033 34.9409 10.5213 34.9924C10.5547 34.9978 10.5885 35.0004 10.6222 34.9999H16.0064C16.2235 35.0014 16.4235 34.8824 16.5256 34.6907C17.7914 32.1999 18.0831 29.1199 18.0831 26.0865C18.083 25.841 17.9291 25.6218 17.6982 25.5383Z" fill="#0F6B2D"/>
<path d="M10.5003 16.3333V7.58335H11.667C11.9892 7.58335 12.2503 7.32222 12.2503 7.00004C12.2503 6.67786 11.9892 6.41673 11.667 6.41673H10.5003V4.08336C10.5003 3.76118 10.2391 3.50005 9.91698 3.50005H1.7503C1.42812 3.50005 1.16699 3.76118 1.16699 4.08336V16.3333C1.16699 16.6555 1.42812 16.9166 1.7503 16.9166H9.91698C10.2392 16.9167 10.5003 16.6555 10.5003 16.3333Z" fill="#0F6B2D"/>
<path d="M26.2502 26.6817C26.2529 26.3595 25.994 26.0962 25.6718 26.0934C25.6448 26.0932 25.6178 26.0949 25.591 26.0984C25.0377 26.1922 24.478 26.2429 23.9168 26.25H21.5835C21.0209 26.249 20.4592 26.2042 19.9035 26.1159C19.5841 26.0739 19.2912 26.2989 19.2493 26.6184C19.2458 26.6452 19.2441 26.6722 19.2443 26.6992C19.2326 29.2652 18.7665 31.8089 17.8676 34.2125C17.7549 34.5142 17.908 34.8503 18.2098 34.9631C18.2721 34.9864 18.3378 34.9989 18.4043 35H27.096C27.4181 34.9971 27.6769 34.7336 27.674 34.4114C27.6733 34.3392 27.6593 34.2678 27.6326 34.2008C26.7314 31.7958 26.2633 29.25 26.2502 26.6817Z" fill="#0F6B2D"/>
<path d="M34.1248 15.1667H12.5415C12.0583 15.1667 11.6665 15.5585 11.6665 16.0417C11.6665 16.5249 12.0583 16.9167 12.5415 16.9167H34.1248C34.608 16.9167 34.9998 16.5249 34.9998 16.0417C34.9998 15.5584 34.6081 15.1667 34.1248 15.1667Z" fill="#0F6B2D"/>
<path d="M32.0775 18.095C32.0372 18.0867 31.996 18.0828 31.9549 18.0832H13.5448C13.2227 18.0767 12.9563 18.3326 12.9498 18.6547C12.9489 18.6978 12.9529 18.7409 12.9615 18.7832C13.6732 22.3532 17.2607 25.0832 21.5832 25.0832H23.9165C28.239 25.0832 31.8265 22.3532 32.5323 18.7832C32.5968 18.4676 32.3931 18.1595 32.0775 18.095Z" fill="#0F6B2D"/>
</svg>
