<svg width="65" height="65" viewBox="0 0 65 65" fill="none" xmlns="http://www.w3.org/2000/svg">
<path d="M61.7497 28.1667C62.9463 28.1667 63.9163 27.1966 63.9163 26V18.3203C63.9165 12.7747 61.2631 7.56378 56.7783 4.30193L52.6367 1.29026C52.2569 1.01417 51.7425 1.01417 51.3627 1.29026L47.2211 4.30193C42.7362 7.56378 40.0829 12.7747 40.083 18.3203V26C40.083 27.1966 41.0531 28.1667 42.2497 28.1667H61.7497Z" fill="#7F8E94"/>
<path d="M56.7786 4.30193L52.637 1.29026C52.2572 1.01417 51.7428 1.01417 51.363 1.29026L50.375 2.00851L53.5286 4.30193C58.0134 7.56378 60.6668 12.7747 60.6667 18.3203V26C60.6667 27.1966 59.6966 28.1667 58.5 28.1667H61.75C62.9466 28.1667 63.9167 27.1966 63.9167 26V18.3203C63.9168 12.7747 61.2634 7.56378 56.7786 4.30193Z" fill="#545C60"/>
<path d="M49.8327 33.5833H54.166C55.3626 33.5833 56.3327 34.5534 56.3327 35.75V50.9166C56.3327 53.3099 54.3926 55.25 51.9994 55.25C49.6061 55.25 47.666 53.3099 47.666 50.9166V35.75C47.666 34.5534 48.6361 33.5833 49.8327 33.5833Z" fill="#FFDC00"/>
<path d="M54.1667 33.5833H50.9167C52.1133 33.5833 53.0833 34.5534 53.0833 35.75V50.9166C53.0798 52.6792 52.009 54.264 50.375 54.925C51.7092 55.4711 53.2279 55.3159 54.424 54.5112C55.6202 53.7065 56.3363 52.3583 56.3333 50.9166V35.75C56.3333 34.5534 55.3633 33.5833 54.1667 33.5833Z" fill="#FEC108"/>
<path d="M51.9997 20.5833C53.1963 20.5833 54.1663 21.5534 54.1663 22.75V33.5833H49.833V22.75C49.833 21.5534 50.8031 20.5833 51.9997 20.5833Z" fill="#607D8B"/>
<path d="M1.08251 60.9245C1.05639 59.1172 2.09391 57.4629 3.73235 56.6995C4.50722 56.3448 5.37433 56.244 6.20993 56.4114C6.63457 56.5007 7.0719 56.3307 7.32468 55.978C8.69035 54.0491 11.3577 53.5858 13.2938 54.9413C13.538 55.1256 13.8486 55.1981 14.149 55.1409C14.4495 55.0837 14.7118 54.9022 14.8712 54.6412C15.8375 53.0033 17.5975 51.9981 19.4992 51.9981C21.4009 51.9981 23.1609 53.0033 24.1272 54.6412C24.2866 54.9022 24.5489 55.0837 24.8493 55.1409C25.1498 55.1981 25.4604 55.1256 25.7045 54.9413C27.6406 53.5858 30.308 54.0491 31.6737 55.978C31.9265 56.3307 32.3638 56.5007 32.7884 56.4114C33.624 56.244 34.4911 56.3448 35.266 56.6995C36.9045 57.4629 37.942 59.1172 37.9158 60.9245V62.8334C37.9158 63.4317 37.4308 63.9167 36.8325 63.9167H2.16585C1.56754 63.9167 1.08251 63.4317 1.08251 62.8334V60.9245Z" fill="#91562D"/>
<path d="M20.878 54.6433C21.0374 54.9043 21.2997 55.0858 21.6001 55.143C21.9006 55.2002 22.2112 55.1277 22.4553 54.9434C22.8918 54.6429 23.3798 54.4255 23.8951 54.302C22.5617 52.3637 20.1125 51.5329 17.875 52.26C19.1336 52.6608 20.2019 53.5086 20.878 54.6433Z" fill="#6D4122"/>
<path d="M35.2661 56.7006C34.4916 56.3459 33.6248 56.2451 32.7896 56.4124C32.3646 56.502 31.9269 56.332 31.6738 55.9791C30.8671 54.8424 29.5598 54.1669 28.1659 54.1667C27.6118 54.1684 27.0634 54.2788 26.5518 54.4917C27.3024 54.8019 27.951 55.3165 28.4238 55.9769C28.6769 56.3298 29.1146 56.4998 29.5396 56.4103C30.3748 56.2429 31.2416 56.3438 32.0161 56.6984C33.6549 57.462 34.6925 59.1168 34.6659 60.9245V62.8334C34.6659 63.4317 34.1809 63.9167 33.5826 63.9167H36.8326C37.4309 63.9167 37.9159 63.4317 37.9159 62.8334V60.9245C37.9416 59.1176 36.9042 57.4638 35.2661 56.7006Z" fill="#6D4122"/>
<path d="M13.9163 42.0127C11.2589 43.9962 7.5447 43.7117 5.22041 41.3465C1.17957 37.2731 0.866491 33.5161 1.17524 31.3083C1.22763 30.9151 1.48422 30.5791 1.84969 30.425C2.21516 30.2709 2.6349 30.3217 2.95299 30.5586C4.15007 31.4654 6.33191 32.3862 9.90474 31.577C11.53 31.1774 13.2448 31.6774 14.4006 32.8878C15.6622 34.1052 16.3335 35.8101 16.2406 37.5608C16.1477 39.3115 15.2997 40.9357 13.9163 42.0127Z" fill="#8BC34A"/>
<path d="M14.4003 32.8879C12.5315 31.083 10.8914 31.4069 9.24579 31.6962C9.9613 31.9469 10.6119 32.354 11.1503 32.8879C12.7339 34.4222 13.359 36.6957 12.7824 38.8239C12.2058 40.9522 10.5185 42.5992 8.37695 43.1243C10.2957 43.6342 12.3425 43.2234 13.916 42.0128C15.2994 40.9358 16.1474 39.3115 16.2403 37.5608C16.3332 35.8101 15.6619 34.1052 14.4003 32.8879Z" fill="#558B30"/>
<path d="M22.9158 37.6772C25.5733 39.6607 29.2874 39.3761 31.6117 37.011C35.6526 32.9376 35.9678 29.1806 35.6569 26.9728C35.6045 26.5796 35.3479 26.2436 34.9824 26.0895C34.617 25.9354 34.1972 25.9862 33.8791 26.2231C32.6821 27.1299 30.5002 28.0507 26.9274 27.2415C25.3022 26.8419 23.5874 27.3419 22.4316 28.5523C21.1699 29.7696 20.4986 31.4745 20.5915 33.2253C20.6844 34.976 21.5324 36.6002 22.9158 37.6772Z" fill="#8BC34A"/>
<path d="M35.658 26.9751C35.6057 26.5819 35.3491 26.2458 34.9836 26.0917C34.6181 25.9376 34.1984 25.9885 33.8803 26.2254C33.43 26.5588 32.937 26.8302 32.4145 27.0325C32.7125 29.2468 32.3701 32.9735 28.3629 37.0132C27.4913 37.8812 26.4001 38.4957 25.2061 38.791C27.5056 39.3584 29.9345 38.6844 31.6129 37.0132C35.6537 32.9334 35.9668 29.1807 35.658 26.9751Z" fill="#558B30"/>
<path d="M51.9993 52C52.5976 52 53.0827 51.515 53.0827 50.9167C53.0827 50.3184 52.5976 49.8333 51.9993 49.8333C51.401 49.8333 50.916 50.3184 50.916 50.9167C50.916 51.515 51.401 52 51.9993 52Z" fill="black"/>
<path d="M57.4157 3.42658L53.273 0.413827C52.5132 -0.138878 51.4837 -0.138878 50.7239 0.413827L46.5824 3.42658C41.8245 6.89807 39.0075 12.4306 38.999 18.3202V26C38.999 27.7949 40.4541 29.25 42.249 29.25H48.749V32.6993C47.4551 33.1568 46.588 34.3776 46.5824 35.75V50.9167C46.5824 53.9082 49.0075 56.3333 51.999 56.3333C54.9906 56.3333 57.4157 53.9082 57.4157 50.9167V35.75C57.41 34.3776 56.5429 33.1568 55.249 32.6993V29.25H61.749C63.5439 29.25 64.999 27.7949 64.999 26V18.3202C64.9905 12.4306 62.1735 6.89807 57.4157 3.42658ZM53.0823 32.5H50.9157V22.75C50.9157 22.1517 51.4007 21.6667 51.999 21.6667C52.5973 21.6667 53.0823 22.1517 53.0823 22.75V32.5ZM55.249 50.9167C55.249 52.7116 53.7939 54.1667 51.999 54.1667C50.2041 54.1667 48.749 52.7116 48.749 50.9167V35.75C48.749 35.1517 49.234 34.6667 49.8323 34.6667H54.1657C54.764 34.6667 55.249 35.1517 55.249 35.75V50.9167ZM62.8323 26C62.8323 26.5983 62.3473 27.0833 61.749 27.0833H55.249V22.75C55.249 20.9551 53.7939 19.5 51.999 19.5C50.2041 19.5 48.749 20.9551 48.749 22.75V27.0833H42.249C41.6507 27.0833 41.1657 26.5983 41.1657 26V18.3202C41.1741 13.1232 43.6602 8.24159 47.8585 5.17833L51.999 2.16666L56.1406 5.17833C60.3383 8.24205 62.8238 13.1234 62.8323 18.3202V26Z" fill="black"/>
<path d="M51.9993 5.41669C51.401 5.41669 50.916 5.90171 50.916 6.50002V16.25C50.916 16.8483 51.401 17.3334 51.9993 17.3334C52.5976 17.3334 53.0827 16.8483 53.0827 16.25V6.50002C53.0827 5.90171 52.5976 5.41669 51.9993 5.41669Z" fill="black"/>
<path d="M2.16619 64.9999H36.8329C38.0295 64.9999 38.9995 64.0299 38.9995 62.8333V60.9244C39.0293 58.6869 37.7368 56.6423 35.7029 55.7093C34.7168 55.2637 33.616 55.1379 32.5548 55.3496C31.5415 53.9324 29.9084 53.089 28.1662 53.0833C27.0501 53.0822 25.9622 53.4341 25.0581 54.0886C24.0946 52.4529 22.4557 51.3281 20.5829 51.0174V42.3453C20.5876 40.8952 21.1728 39.5074 22.2079 38.4919C22.2209 38.5016 22.2317 38.5124 22.2436 38.5233C23.547 39.5392 25.1552 40.0851 26.8077 40.0724C28.8969 40.0739 30.9013 39.2459 32.3804 37.7704C36.6454 33.4717 37.0994 29.4428 36.7289 26.8189C36.6231 26.0389 36.1088 25.3747 35.3801 25.0769C34.6634 24.7768 33.8408 24.8834 33.2243 25.3564C32.2049 26.1278 30.3274 26.8991 27.1652 26.1819C25.1825 25.7063 23.0961 26.3125 21.677 27.7766C19.1772 30.1786 18.7809 34.036 20.7399 36.8961C19.2596 38.323 18.4212 40.2892 18.4162 42.3453V42.4753C18.107 42.1507 17.7691 41.8549 17.4065 41.5913L16.3405 40.8329C18.0212 38.0036 17.5271 34.3888 15.1489 32.1143C13.7289 30.6525 11.6431 30.0484 9.66177 30.525C6.50061 31.2422 4.62102 30.4709 3.60269 29.6995C2.98623 29.2273 2.16419 29.1211 1.44794 29.4211C0.723556 29.7196 0.212953 30.3813 0.107857 31.1577C-0.268059 33.7815 0.185858 37.8083 4.45202 42.1113C5.93022 43.5879 7.93426 44.4171 10.0236 44.4166C11.6762 44.4292 13.2846 43.8829 14.5877 42.8664C14.722 42.758 14.8455 42.6399 14.9723 42.524L16.1434 43.3614C17.5647 44.3773 18.4105 46.0149 18.4162 47.7619V51.0174C16.5463 51.3309 14.9045 52.4403 13.916 54.0583C13.0132 53.4235 11.9365 53.083 10.8329 53.0833C9.0848 53.0929 7.44599 53.9351 6.42044 55.3507C5.36682 55.1393 4.2734 55.2648 3.29502 55.7093C1.26173 56.6429 -0.0301455 58.6873 -0.000476171 60.9244V62.8333C-0.000476171 64.0299 0.969573 64.9999 2.16619 64.9999ZM23.1829 29.3312C24.0758 28.3752 25.4177 27.9797 26.6864 28.2988C30.6611 29.1958 33.1463 28.1363 34.5817 27.1244C34.8839 29.2629 34.4799 32.5801 30.8431 36.2461C29.0384 38.0726 26.2179 38.4263 24.0181 37.1019L27.7112 34.464C28.0428 34.2458 28.2284 33.8637 28.1951 33.4681C28.1617 33.0726 27.9147 32.7269 27.5513 32.5673C27.1879 32.4076 26.7662 32.4595 26.4524 32.7025L22.4679 35.5484C21.9952 34.8293 21.7205 33.9983 21.6716 33.1391C21.6062 31.7119 22.1565 30.3252 23.1829 29.3312ZM5.98927 40.5838C2.35036 36.9156 1.94952 33.5984 2.29836 31.422C3.68394 32.4729 6.16911 33.5313 10.1439 32.6343C11.4115 32.316 12.7519 32.7105 13.6452 33.6645C14.6757 34.6573 15.2297 36.0451 15.1662 37.4746C15.1297 38.2073 14.9294 38.9225 14.5801 39.5676L12.551 38.1192C12.2372 37.8762 11.8155 37.8243 11.4521 37.984C11.0887 38.1436 10.8417 38.4892 10.8083 38.8848C10.775 39.2803 10.9606 39.6624 11.2922 39.8807L13.1631 41.2175C10.9417 42.8004 7.8988 42.5315 5.98927 40.5838ZM2.16619 60.9244C2.13664 59.5455 2.92212 58.2785 4.17036 57.6918C4.5615 57.513 4.98613 57.4192 5.41619 57.4166C5.61192 57.4169 5.80714 57.4365 5.99902 57.4751C6.84144 57.6429 7.70436 57.3043 8.20794 56.6084C9.2271 55.162 11.2248 54.8136 12.6734 55.8295C13.1803 56.1867 13.8128 56.3174 14.4198 56.1903C15.0007 56.0684 15.5031 55.7069 15.8032 55.1947C16.5742 53.8852 17.9804 53.0812 19.5001 53.0812C21.0197 53.0812 22.426 53.8852 23.1969 55.1947C23.4972 55.7073 24 56.0693 24.5814 56.1914C25.1884 56.3189 25.821 56.1882 26.3278 55.8306C27.7769 54.8142 29.7755 55.1632 30.7944 56.6106C31.2971 57.3063 32.1593 57.645 33.0011 57.4773C33.6182 57.3524 34.259 57.4284 34.8298 57.6939C36.0769 58.2807 36.8617 59.5465 36.8329 60.9244V62.8333H2.16619V60.9244Z" fill="black"/>
<path d="M19.4992 56.3333C18.3096 56.3563 17.1943 56.9167 16.4659 57.8575C16.119 58.3347 16.2178 59.0017 16.688 59.3579C17.1648 59.7137 17.8385 59.6232 18.2046 59.1543C18.5236 58.7621 18.9943 58.5242 19.4992 58.4999C19.9921 58.5033 20.4577 58.7266 20.7689 59.1088C21.1051 59.6042 21.7793 59.7332 22.2747 59.3969C22.7701 59.0607 22.8991 58.3865 22.5629 57.8911C21.8453 56.9167 20.7093 56.3391 19.4992 56.3333Z" fill="black"/>
<path d="M11.916 58.4999H9.74935C9.15104 58.4999 8.66602 58.985 8.66602 59.5833C8.66602 60.1816 9.15104 60.6666 9.74935 60.6666H11.916C12.5143 60.6666 12.9994 60.1816 12.9994 59.5833C12.9994 58.985 12.5143 58.4999 11.916 58.4999Z" fill="black"/>
<path d="M29.25 58.4999H27.0833C26.485 58.4999 26 58.985 26 59.5833C26 60.1816 26.485 60.6666 27.0833 60.6666H29.25C29.8483 60.6666 30.3333 60.1816 30.3333 59.5833C30.3333 58.985 29.8483 58.4999 29.25 58.4999Z" fill="black"/>
</svg>
