<svg width="36" height="36" viewBox="0 0 36 36" fill="none" xmlns="http://www.w3.org/2000/svg">
<path d="M28.4866 20.1671C29.074 20.1412 29.5584 20.6098 29.5584 21.1915V26.5373C31.0427 26.1777 32.3846 25.036 33.4107 23.2332C34.565 21.2054 35.2008 18.5381 35.2008 15.7227C35.2008 12.9072 34.565 10.2399 33.4107 8.21208C32.1528 6.00223 30.4205 4.78516 28.533 4.78516C27.7825 4.78516 27.0566 4.97827 26.3751 5.34912C27.2898 7.72297 27.7811 10.4773 27.7811 13.3301C27.7811 17.1328 26.9081 20.7607 25.323 23.5456C25.1033 23.9315 24.8727 24.2964 24.6323 24.6414C25.4786 25.6363 26.4575 26.2828 27.5077 26.5373V21.2236C27.5077 20.6697 27.9333 20.1914 28.4866 20.1671Z" fill="#0F6B2D"/>
<path d="M14.553 12.4188C14.1526 12.0183 14.1526 11.3691 14.553 10.9687C14.9534 10.5682 15.6027 10.5682 16.0031 10.9687L16.5769 11.5425V10.3906C16.5769 9.82434 17.036 9.36523 17.6023 9.36523C18.1686 9.36523 18.6277 9.82434 18.6277 10.3906V15.5367L20.2437 13.9207C20.644 13.5203 21.2933 13.5203 21.6938 13.9207C22.0942 14.3212 22.0942 14.9704 21.6938 15.3708L18.6277 18.4369V26.5566C20.4779 26.18 22.1599 24.7838 23.4423 22.5311C24.8543 20.0505 25.6319 16.7828 25.6319 13.3301C25.6319 9.87731 24.8542 6.60967 23.4423 4.12904C21.9266 1.46638 19.8526 0 17.6023 0C15.3521 0 13.2781 1.46638 11.7624 4.12904C10.3504 6.60967 9.57275 9.87731 9.57275 13.3301C9.57275 16.7828 10.3504 20.0505 11.7624 22.5311C13.0447 24.7838 14.7267 26.18 16.5769 26.5566V14.4427L14.553 12.4188Z" fill="#0F6B2D"/>
<path d="M33.9746 32.9685H29.3578V26.5566C29.0225 26.6378 28.6801 26.6794 28.3324 26.6794C27.9846 26.6794 27.6422 26.6378 27.307 26.5566V32.9685H18.5254V26.5759C18.1887 26.6444 17.8464 26.6794 17.5 26.6794C17.1536 26.6794 16.8113 26.6444 16.4746 26.5759V32.9685H7.70308V26.5566C7.36784 26.6378 7.02543 26.6794 6.67769 26.6794C6.32994 26.6794 5.98746 26.6378 5.65229 26.5566V32.9685H1.02539C0.459102 32.9685 0 33.4276 0 33.9939C0 34.5602 0.459102 35.0193 1.02539 35.0193H33.9746C34.5409 35.0193 35 34.5602 35 33.9939C35 33.4276 34.5409 32.9685 33.9746 32.9685Z" fill="#0F6B2D"/>
<path d="M6.67789 20.166C7.24418 20.166 7.70328 20.6251 7.70328 21.1914V26.5372C8.7513 26.2833 9.72815 25.6389 10.5732 24.6478C10.3312 24.3009 10.0991 23.9338 9.87807 23.5456C8.29288 20.7607 7.41986 17.1328 7.41986 13.33C7.41986 10.4755 7.91185 7.71948 8.82766 5.34468C8.14857 4.97684 7.42554 4.78516 6.67796 4.78516C4.79049 4.78516 3.05826 6.00223 1.80031 8.21208C0.645996 10.2399 0.0102539 12.9072 0.0102539 15.7227C0.0102539 18.5381 0.645996 21.2054 1.80031 23.2332C2.82646 25.0359 4.16835 26.1777 5.65257 26.5372V21.1914C5.6525 20.6251 6.1116 20.166 6.67789 20.166Z" fill="#0F6B2D"/>
</svg>
