<svg width="65" height="65" viewBox="0 0 65 65" fill="none" xmlns="http://www.w3.org/2000/svg">
<g clip-path="url(#clip0)">
<path d="M46.5823 32.5V41.1666C44.1913 41.172 42.2544 43.109 42.249 45.5H37.9157C36.7206 45.4964 35.7526 44.5284 35.749 43.3333V32.5C35.7526 31.3048 36.7206 30.3369 37.9157 30.3333H44.4157C45.6108 30.3369 46.5788 31.3048 46.5823 32.5Z" fill="#FF9801"/>
<path d="M46.5827 32.5V41.1667C45.3375 41.166 44.1528 41.7031 43.3327 42.64V32.5C43.3291 31.3048 42.3612 30.3369 41.166 30.3333H44.416C45.6112 30.3369 46.5791 31.3048 46.5827 32.5Z" fill="#F57C00"/>
<path d="M50.9167 45.5C50.9167 47.8932 48.9766 49.8333 46.5833 49.8333C44.1901 49.8333 42.25 47.8932 42.25 45.5C42.25 43.1068 44.1901 41.1667 46.5833 41.1667C48.9766 41.1667 50.9167 43.1068 50.9167 45.5Z" fill="#FF5722"/>
<path d="M46.583 41.1667C46.0254 41.169 45.4736 41.2793 44.958 41.4917C46.5852 42.1552 47.6506 43.7358 47.6551 45.4931C47.6596 47.2504 46.6024 48.8364 44.9786 49.5083C45.4875 49.7191 46.0323 49.8294 46.583 49.8333C48.9762 49.8333 50.9163 47.8932 50.9163 45.5C50.9163 43.1068 48.9762 41.1667 46.583 41.1667Z" fill="#D84315"/>
<path d="M32.4992 22.75C32.4981 24.3423 31.6249 25.806 30.2242 26.5633C29.9161 26.7295 29.5887 26.8569 29.2492 26.9425C28.8964 27.0392 28.5318 27.0866 28.1659 27.0833C25.8001 27.0863 23.8692 25.1913 23.8278 22.8259C23.7864 20.4605 25.6498 18.499 28.0142 18.4191C30.3786 18.3393 32.3701 20.1705 32.4884 22.5333C32.4974 22.6052 32.501 22.6776 32.4992 22.75Z" fill="#FF5722"/>
<path d="M39.0863 30.3333H37.9163C36.7212 30.3369 35.7532 31.3048 35.7496 32.5V33.0958L30.2246 26.5633C31.6252 25.8059 32.4985 24.3422 32.4996 22.75C32.5014 22.6776 32.4978 22.6052 32.4888 22.5333L39.0863 30.3333Z" fill="#FFDC00"/>
<path d="M29.2494 26.9425V50.9166H24.916V25.61C25.7361 26.5469 26.9209 27.084 28.166 27.0833C28.5319 27.0866 28.8965 27.0392 29.2494 26.9425Z" fill="#FFDC00"/>
<path d="M31.4167 53.0834V57.4167H22.75V50.9167H29.25C30.4451 50.9203 31.4131 51.8882 31.4167 53.0834Z" fill="#FF5722"/>
<path d="M29.25 50.9167H26C27.1951 50.9203 28.1631 51.8882 28.1667 53.0834V57.4167H31.4167V53.0834C31.4131 51.8882 30.4451 50.9203 29.25 50.9167Z" fill="#D84315"/>
<path d="M4.33301 50.9167H22.7497V57.4167H4.33301V50.9167Z" fill="#FF9801"/>
<path d="M16.2493 44.4166V50.9166H4.33268C3.13755 50.9131 2.16958 49.9451 2.16602 48.75V44.4166C2.16958 43.2215 3.13755 42.2535 4.33268 42.25H14.0827C15.2778 42.2535 16.2458 43.2215 16.2493 44.4166Z" fill="#FF5722"/>
<path d="M35.7497 60.6667C35.7497 62.4616 34.2946 63.9167 32.4997 63.9167H4.33301C2.53808 63.9167 1.08301 62.4616 1.08301 60.6667C1.08301 58.8717 2.53808 57.4167 4.33301 57.4167H32.4997C34.2946 57.4167 35.7497 58.8717 35.7497 60.6667Z" fill="#607D8B"/>
<path d="M32.5 57.4167H29.25C31.0449 57.4167 32.5 58.8717 32.5 60.6667C32.5 62.4616 31.0449 63.9167 29.25 63.9167H32.5C34.2949 63.9167 35.75 62.4616 35.75 60.6667C35.75 58.8717 34.2949 57.4167 32.5 57.4167Z" fill="#37474F"/>
<path d="M20.583 32.5V50.9167H16.2497V44.4167C16.2461 43.2215 15.2781 42.2536 14.083 42.25H4.33301V32.5H20.583Z" fill="#02A9F4"/>
<path d="M20.5824 29.25V32.5H4.33236C3.73405 32.5 3.24902 32.015 3.24902 31.4166V29.25C3.24902 28.6517 3.73405 28.1666 4.33236 28.1666H19.499C20.0973 28.1666 20.5824 28.6517 20.5824 29.25Z" fill="#FF9801"/>
<path d="M61.7497 63.9166H40.083C41.8779 63.9166 43.333 62.4616 43.333 60.6666V48.36C44.6508 49.86 46.8231 50.2654 48.5932 49.3417C50.3634 48.4179 51.2732 46.4042 50.7965 44.4652C50.3197 42.5263 48.5797 41.1641 46.583 41.1666V32.5C46.5794 31.3048 45.6115 30.3369 44.4163 30.3333H43.333V12.155C43.9221 12.7009 44.6965 13.0029 45.4997 13C46.2046 13 46.89 12.7678 47.4497 12.3391C48.264 13.4364 49.5498 14.0834 50.9163 14.0834C52.2828 14.0834 53.5686 13.4364 54.383 12.3391C54.9427 12.7678 55.628 13 56.333 13C57.1362 13.0029 57.9105 12.7009 58.4997 12.155V60.6666C58.4997 62.4616 59.9547 63.9166 61.7497 63.9166Z" fill="#91562D"/>
<path d="M58.5 60.6666V12.155C57.6235 12.9624 56.3696 13.2132 55.25 12.805V60.6666C55.25 62.4616 56.7051 63.9166 58.5 63.9166H61.75C59.9551 63.9166 58.5 62.4616 58.5 60.6666Z" fill="#6D4122"/>
<path d="M63.9162 7.58333C63.9162 9.37825 62.4611 10.8333 60.6662 10.8333C60.2537 10.8328 59.8452 10.7518 59.4637 10.595C59.3063 11.2001 58.9703 11.7437 58.4995 12.155C57.9104 12.7009 57.136 13.0029 56.3328 13C55.6279 13.0001 54.9425 12.7678 54.3828 12.3392C53.5685 13.4365 52.2827 14.0834 50.9162 14.0834C49.5497 14.0834 48.2639 13.4365 47.4495 12.3392C46.8898 12.7678 46.2045 13.0001 45.4995 13C44.6963 13.0029 43.922 12.7009 43.3328 12.155C42.862 11.7437 42.526 11.2001 42.3687 10.595C41.9871 10.7518 41.5787 10.8328 41.1662 10.8333C39.3713 10.8333 37.9162 9.37825 37.9162 7.58333C37.7932 6.30388 38.499 5.08829 39.6712 4.56083C38.7447 3.88107 38.1284 2.85913 37.9595 1.72249C37.9358 1.56377 37.9816 1.40252 38.0854 1.28008C38.1892 1.15765 38.3407 1.08593 38.5012 1.08333H63.3312C63.4916 1.08593 63.6432 1.15765 63.7469 1.28008C63.8507 1.40252 63.8966 1.56377 63.8728 1.72249C63.7039 2.85913 63.0877 3.88107 62.1612 4.56083C63.3333 5.08829 64.0391 6.30388 63.9162 7.58333Z" fill="#8BC34A"/>
<path d="M62.1613 4.56083C63.0878 3.88107 63.7041 2.85913 63.873 1.72249C63.8968 1.56377 63.8509 1.40252 63.7471 1.28008C63.6434 1.15765 63.4918 1.08593 63.3313 1.08333H60.0813C60.2418 1.08593 60.3934 1.15765 60.4971 1.28008C60.6009 1.40252 60.6468 1.56377 60.623 1.72249C60.4541 2.85913 59.8378 3.88107 58.9113 4.56083C60.0835 5.08829 60.7893 6.30388 60.6663 7.58333C60.6663 9.37825 59.2113 10.8333 57.4163 10.8333C57.0038 10.8328 56.5954 10.7518 56.2138 10.595C56.0565 11.2001 55.7205 11.7437 55.2497 12.155C55.0834 12.305 54.9019 12.4372 54.708 12.5493C55.9192 13.2745 57.4636 13.1139 58.4997 12.155C58.9705 11.7437 59.3065 11.2001 59.4638 10.595C59.8454 10.7518 60.2538 10.8328 60.6663 10.8333C62.4613 10.8333 63.9163 9.37825 63.9163 7.58333C64.0393 6.30388 63.3335 5.08829 62.1613 4.56083Z" fill="#549414"/>
<path d="M64.9404 1.88282C65.012 1.40859 64.8731 0.926725 64.5601 0.563319C64.2524 0.205372 63.8037 -0.000376508 63.3316 -1.47826e-05H38.5016C38.0296 -0.000376508 37.5809 0.205372 37.2731 0.563319C36.96 0.926685 36.8208 1.40845 36.8918 1.88282C37.0335 2.82466 37.421 3.71251 38.0152 4.45682C37.1787 5.27323 36.7461 6.41773 36.8333 7.58332C36.8333 9.97655 38.7734 11.9167 41.1666 11.9167C41.3554 11.9166 41.544 11.9035 41.7311 11.8777C41.8786 12.1348 42.0525 12.3758 42.25 12.597V29.25H39.5893L33.514 22.0664C33.2381 19.8133 31.583 17.9731 29.3717 17.4607C27.1603 16.9484 24.8646 17.8733 23.626 19.7755C22.3874 21.6777 22.4702 24.1513 23.8333 25.9664V49.8333H21.6666V29.25C21.6666 28.0534 20.6966 27.0833 19.5 27.0833H4.3333C3.13669 27.0833 2.16664 28.0534 2.16664 29.25V31.4167C2.16896 32.1873 2.58182 32.8982 3.24997 33.2822V41.366C1.95609 41.8234 1.08899 43.0443 1.0833 44.4167V48.75C1.08899 50.1223 1.95609 51.3432 3.24997 51.8007V56.4872C1.13934 57.0304 -0.237281 59.0593 0.0378505 61.2213C0.312982 63.3833 2.15389 65.0027 4.3333 65H32.5C34.8932 65 36.8333 63.0599 36.8333 60.6667C36.8333 58.2734 34.8932 56.3333 32.5 56.3333V53.0833C32.4943 51.711 31.6272 50.4901 30.3333 50.0326V28.366L34.6666 33.4891V43.3333C34.6666 44.1953 35.009 45.0219 35.6185 45.6314C36.228 46.2409 37.0547 46.5833 37.9166 46.5833H41.275C41.4387 47.3575 41.7717 48.086 42.25 48.7164V60.6667C42.25 61.8633 41.2799 62.8333 40.0833 62.8333C39.485 62.8333 39 63.3183 39 63.9167C39 64.515 39.485 65 40.0833 65H61.75C62.3483 65 62.8333 64.515 62.8333 63.9167C62.8333 63.3183 62.3483 62.8333 61.75 62.8333C60.5534 62.8333 59.5833 61.8633 59.5833 60.6667V12.597C59.7807 12.3758 59.9546 12.1348 60.1022 11.8777C61.3372 12.0314 62.579 11.65 63.5147 10.8295C64.4505 10.0091 64.991 8.82778 65 7.58332C65.0872 6.41751 64.6541 5.27286 63.817 4.45682C64.4112 3.71251 64.7987 2.82466 64.9404 1.88282ZM44.4166 13.9414C44.7703 14.0342 45.1343 14.0819 45.5 14.0833C46.0969 14.0843 46.6875 13.96 47.2333 13.7182C49.3092 15.6493 52.5241 15.6493 54.6 13.7182C55.1458 13.96 55.7363 14.0843 56.3333 14.0833C56.699 14.0819 57.063 14.0342 57.4166 13.9414V44.4167H51.8916C51.4534 42.2909 49.7924 40.6298 47.6666 40.1917V32.5C47.6666 30.7051 46.2116 29.25 44.4166 29.25V13.9414ZM43.3333 45.5C43.3333 43.7051 44.7884 42.25 46.5833 42.25C48.3782 42.25 49.8333 43.7051 49.8333 45.5C49.8333 47.2949 48.3782 48.75 46.5833 48.75C44.7884 48.75 43.3333 47.2949 43.3333 45.5ZM35.1856 30.7504L31.7958 26.7421C32.3534 26.2397 32.8005 25.6269 33.1088 24.9427L36.9005 29.4277C36.1947 29.66 35.5895 30.1267 35.1856 30.7504ZM28.1666 19.5C29.9616 19.5 31.4166 20.9551 31.4166 22.75C31.4166 24.5449 29.9616 26 28.1666 26C26.3717 26 24.9166 24.5449 24.9166 22.75C24.9166 20.9551 26.3717 19.5 28.1666 19.5ZM26 27.7073C26.6824 28.0095 27.4203 28.166 28.1666 28.1667V49.8333H26V27.7073ZM5.41664 56.3333V52H21.6666V56.3333H5.41664ZM17.3333 49.8333V44.4167C17.3333 42.6217 15.8782 41.1667 14.0833 41.1667H9.74997V36.8333C9.74997 36.235 9.26495 35.75 8.66664 35.75C8.06833 35.75 7.5833 36.235 7.5833 36.8333V41.1667H5.41664V33.5833H19.5V49.8333H17.3333ZM4.3333 29.25H19.5V31.4167H4.3333V29.25ZM3.24997 44.4167C3.24997 43.8183 3.73499 43.3333 4.3333 43.3333H14.0833C14.6816 43.3333 15.1666 43.8183 15.1666 44.4167V49.8333H4.3333C3.73499 49.8333 3.24997 49.3483 3.24997 48.75V44.4167ZM34.6666 60.6667C34.6666 61.8633 33.6966 62.8333 32.5 62.8333H4.3333C3.13669 62.8333 2.16664 61.8633 2.16664 60.6667C2.16664 59.47 3.13669 58.5 4.3333 58.5H32.5C33.6966 58.5 34.6666 59.47 34.6666 60.6667ZM23.8333 56.3333V52H29.25C29.8483 52 30.3333 52.485 30.3333 53.0833V56.3333H23.8333ZM36.8333 43.3333V32.5C36.8333 31.9017 37.3183 31.4167 37.9166 31.4167H44.4166C45.0149 31.4167 45.5 31.9017 45.5 32.5V40.1917C43.3743 40.6298 41.7132 42.2909 41.275 44.4167H37.9166C37.3183 44.4167 36.8333 43.9316 36.8333 43.3333ZM43.8349 62.8333C44.2171 62.1753 44.4178 61.4276 44.4166 60.6667V50.4573C45.099 50.7595 45.837 50.916 46.5833 50.9167C49.1563 50.9134 51.3733 49.1036 51.8916 46.5833H57.4166V60.6667C57.4155 61.4276 57.6162 62.1753 57.9984 62.8333H43.8349ZM60.6666 9.74998C60.3953 9.74929 60.1268 9.69594 59.8758 9.5929C59.5873 9.4742 59.2617 9.48561 58.9823 9.62419C58.7028 9.76278 58.4967 10.0151 58.4166 10.3166C58.3049 10.731 58.0708 11.1021 57.7449 11.3815L57.7297 11.3956C56.9659 12.0584 55.8411 12.0924 55.0387 11.4768C54.8082 11.301 54.5167 11.2249 54.2297 11.2656C53.9426 11.3064 53.6838 11.4605 53.5112 11.6935C52.9005 12.5129 51.9386 12.9957 50.9166 12.9957C49.8947 12.9957 48.9328 12.5129 48.3221 11.6935C48.1508 11.4587 47.8924 11.3026 47.6049 11.2602C47.5535 11.2533 47.5018 11.2497 47.45 11.2493C47.2156 11.2493 46.9875 11.3253 46.8 11.466C45.9976 12.0816 44.8728 12.0476 44.109 11.3847L44.0938 11.3707C43.7676 11.0914 43.5332 10.7203 43.4211 10.3057C43.341 10.0043 43.1348 9.75195 42.8554 9.61336C42.5759 9.47477 42.2503 9.46337 41.9618 9.58207C41.7103 9.68959 41.4401 9.74664 41.1666 9.74998C39.97 9.74998 39 8.77994 39 7.58332C38.8789 6.6899 39.382 5.8289 40.2198 5.49574C40.5363 5.31175 40.7385 4.98037 40.7573 4.61476C40.7761 4.24915 40.6089 3.89878 40.313 3.68332C39.7946 3.30121 39.4019 2.77314 39.1852 2.16665H62.647C62.4311 2.77328 62.0387 3.30148 61.5203 3.68332C61.2263 3.89907 61.0605 4.24828 61.0793 4.61248C61.0981 4.97669 61.2988 5.30701 61.6135 5.4914C62.453 5.82496 62.9565 6.6884 62.8333 7.58332C62.8333 8.77994 61.8633 9.74998 60.6666 9.74998Z" fill="black"/>
<path d="M6.49935 47.6666H8.66602C9.26433 47.6666 9.74935 47.1816 9.74935 46.5833C9.74935 45.985 9.26433 45.5 8.66602 45.5H6.49935C5.90104 45.5 5.41602 45.985 5.41602 46.5833C5.41602 47.1816 5.90104 47.6666 6.49935 47.6666Z" fill="black"/>
</g>
<defs>
<clipPath id="clip0">
<rect width="65" height="65" fill="white"/>
</clipPath>
</defs>
</svg>
