<svg height="511pt" viewBox="1 -56 511.999 511" width="511pt" xmlns="http://www.w3.org/2000/svg"><path d="m453.738281 392.253906h-441.199219c-2.757812 0-5-2.238281-5-5v-189.179687h451.199219v189.179687c0 2.761719-2.238281 5-5 5zm0 0" fill="#a8d3d8"/><path d="m418.519531 198.074219v174.070312c0 2.777344-2.25 5.027344-5.027343 5.027344h-405.953126v10.054687c0 2.777344 2.253907 5.027344 5.027344 5.027344h441.144532c2.777343 0 5.027343-2.25 5.027343-5.027344v-189.152343zm0 0" fill="#8ebac5"/><path d="m164.960938 17.582031c0-1.824219-1.125-3.457031-2.828126-4.105469-12.632812-4.820312-27.074218-4.527343-39.488281.882813-10.433593 4.550781-22.234375 4.8125-32.652343.222656l-.238282-.105469c-12.554687-5.53125-26.78125-5.890624-39.59375-1l-1.238281.472657v71.722656l1.238281-.472656c11.90625-4.542969 25.414063-4.542969 37.324219 0 11.90625 4.546875 25.414063 4.546875 37.324219 0 11.90625-4.542969 25.417968-4.542969 37.324218 0 1.367188.519531 2.828126-.488281 2.828126-1.949219zm0 0" fill="#ffe02f"/><path d="m162.132812 13.476562c-3.695312-1.410156-7.546874-2.367187-11.453124-2.902343v54.578125c0 1.460937-1.460938 2.46875-2.828126 1.949218-11.90625-4.542968-25.417968-4.542968-37.324218 0-11.910156 4.546876-25.417969 4.546876-37.324219 0-7.714844-2.941406-16.09375-3.96875-24.28125-3.097656v21.667969l1.238281-.472656c11.90625-4.542969 25.417969-4.542969 37.324219 0 11.90625 4.546875 25.417969 4.546875 37.324219 0 11.90625-4.542969 25.417968-4.542969 37.324218 0 1.367188.519531 2.828126-.488281 2.828126-1.949219v-65.671875c0-1.820313-1.125-3.453125-2.828126-4.101563zm0 0" fill="#ffd500"/><path d="m302.328125 364.101562h-266.027344c-2.773437 0-5.023437-2.25-5.023437-5.023437v-87.042969c0-2.773437 2.25-5.023437 5.023437-5.023437h266.027344c2.777344 0 5.023437 2.25 5.023437 5.023437v87.042969c0 2.773437-2.246093 5.023437-5.023437 5.023437zm0 0" fill="#fff5f5"/><path d="m302.300781 267.011719h-14.050781v71.1875c0 2.789062-2.261719 5.050781-5.050781 5.050781h-251.921875v15.800781c0 2.789063 2.261718 5.050781 5.050781 5.050781h265.972656c2.792969 0 5.050781-2.261718 5.050781-5.050781v-86.988281c0-2.789062-2.257812-5.050781-5.050781-5.050781zm0 0" fill="#efe2dd"/><path d="m323.789062 17.582031c0-1.824219-1.128906-3.457031-2.828124-4.105469-12.636719-4.820312-27.074219-4.527343-39.488282.882813-10.4375 4.550781-22.238281 4.8125-32.652344.222656l-.242187-.105469c-12.550781-5.53125-26.777344-5.890624-39.59375-1l-1.238281.472657v71.722656l1.238281-.472656c11.90625-4.542969 25.417969-4.542969 37.324219 0 11.90625 4.546875 25.417968 4.546875 37.324218 0 11.90625-4.542969 25.417969-4.542969 37.328126 0 1.363281.519531 2.828124-.488281 2.828124-1.949219zm0 0" fill="#00c37a"/><path d="m320.960938 13.476562c-3.695313-1.410156-7.546876-2.367187-11.453126-2.902343v54.578125c0 1.460937-1.464843 2.46875-2.832031 1.949218-11.90625-4.542968-25.414062-4.542968-37.324219 0-11.90625 4.546876-25.417968 4.546876-37.324218 0-7.710938-2.941406-16.09375-3.96875-24.277344-3.097656v21.667969l1.234375-.472656c11.910156-4.542969 25.417969-4.542969 37.324219 0 11.910156 4.546875 25.417968 4.546875 37.324218 0 11.90625-4.542969 25.417969-4.542969 37.328126 0 1.363281.519531 2.828124-.488281 2.828124-1.949219v-65.671875c0-1.820313-1.128906-3.453125-2.828124-4.101563zm0 0" fill="#00a855"/><path d="m504.460938 165.902344c0-2.777344-2.253907-5.027344-5.027344-5.027344h-486.863282c-2.777343 0-5.027343 2.25-5.027343 5.027344v69.375h348.269531c1.25 0 2.492188-.15625 3.707031-.460938l139.632813-35.394531c3.121094-.792969 5.308594-3.601563 5.308594-6.824219zm0 0" fill="#00c37a"/><path d="m499.433594 160.871094h-25.808594v20.230468c0 3.21875-2.1875 6.03125-5.308594 6.820313l-140.484375 35.613281c-.644531.164063-1.308593.246094-1.976562.246094h-318.316407v11.496094h348.273438c1.25 0 2.492188-.15625 3.703125-.460938l139.632813-35.394531c3.125-.792969 5.3125-3.601563 5.3125-6.824219v-26.695312c0-2.777344-2.253907-5.03125-5.027344-5.03125zm0 0" fill="#00a855"/><path d="m302.300781 371.640625c6.945313 0 12.59375-5.648437 12.59375-12.589844v-86.988281c0-6.941406-5.648437-12.59375-12.59375-12.59375h-265.972656c-6.941406 0-12.589844 5.652344-12.589844 12.59375v86.988281c0 6.941407 5.648438 12.589844 12.589844 12.589844zm-91.105469-15.082031h-33.34375v-82.007813h33.34375zm15.082032-82.007813h33.351562v82.007813h-33.351562zm-63.507813 82.007813h-33.347656v-82.007813h33.347656zm-48.429687 0h-33.351563v-82.007813h33.347657v82.007813zm185.472656 0h-25.101562v-82.007813h25.101562zm-260.992188-82.007813h27.085938v82.007813h-27.085938zm0 0"/><path d="m499.433594 153.332031h-286.15625v-61.65625c9.761718-3.285156 20.722656-3.101562 30.34375.570313 6.785156 2.589844 14.066406 3.882812 21.351562 3.882812 7.28125 0 14.566406-1.292968 21.347656-3.882812 10.152344-3.875 21.796876-3.871094 31.957032.003906 2.957031 1.125 6.28125.722656 8.886718-1.074219 2.609376-1.796875 4.164063-4.757812 4.164063-7.925781v-65.667969c0-4.921875-3.089844-9.402343-7.679687-11.148437-14.519532-5.542969-30.996094-5.171875-45.1875 1.015625-8.671876 3.777343-18.367188 3.863281-26.597657.234375l-.246093-.109375c-12.496094-5.503907-26.210938-6.546875-39.234376-3.09375-1.273437-2.367188-3.769531-3.980469-6.648437-3.980469-4.164063 0-7.539063 3.375-7.539063 7.542969v145.289062h-143.742187v-61.65625c9.757813-3.285156 20.71875-3.101562 30.34375.570313 6.78125 2.589844 14.066406 3.882812 21.347656 3.882812 7.285157 0 14.566407-1.292968 21.351563-3.882812 10.152344-3.875 21.796875-3.871094 31.953125.003906 2.960937 1.125 6.285156.722656 8.890625-1.074219 2.605468-1.796875 4.164062-4.761719 4.164062-7.925781v-65.667969c0-4.921875-3.09375-9.40625-7.683594-11.148437-14.519531-5.542969-30.992187-5.171875-45.1875 1.015625-8.667968 3.777343-18.363281 3.863281-26.597656.234375l-.246094-.109375c-12.492187-5.503907-26.210937-6.546875-39.234374-3.097657-1.269532-2.367187-3.769532-3.976562-6.644532-3.976562-4.167968 0-7.542968 3.375-7.542968 7.539062v145.292969h-26.800782c-6.929687 0-12.566406 5.636719-12.566406 12.570313v155.175781c0 4.164063 3.375 7.539063 7.539062 7.539063 4.167969 0 7.542969-3.375 7.542969-7.539063v-78.257813h340.730469c1.871094 0 3.742188-.234374 5.558594-.695312l28.882812-7.320312c4.039063-1.023438 6.480469-5.128907 5.457032-9.164063-1.023438-4.039063-5.128907-6.476563-9.164063-5.457031l-28.882813 7.320312c-.605468.15625-1.226562.230469-1.851562.230469h-340.730469v-59.320313h481.835938v23.792969l-77.441407 19.628907c-4.039062 1.023437-6.480468 5.125-5.457031 9.164062 1.023438 4.035156 5.128907 6.480469 9.164063 5.457031l28.011718-7.101562v165.355469h-436.113281v-30.453126c0-4.164062-3.375-7.542968-7.542969-7.542968-4.164062 0-7.539062 3.378906-7.539062 7.542968v32.96875c0 6.929688 5.636719 12.566407 12.566406 12.566407h441.144532c6.929687 0 12.566406-5.636719 12.566406-12.566407v-171.695312l34.726562-8.800781c6.472656-1.640625 10.996094-7.453125 10.996094-14.132813v-26.695312c0-6.933594-5.636719-12.570313-12.566406-12.570313zm-284.144532-134.015625c10.007813-2.886718 20.613282-2.183594 30.246094 2.058594l.242188.109375c12.082031 5.324219 26.1875 5.246094 38.707031-.210937 9.953125-4.339844 21.410156-4.84375 31.761719-1.464844v56.078125c-11.636719-2.746094-24.144532-1.988281-35.300782 2.269531-10.148437 3.875-21.792968 3.875-31.945312 0-6.785156-2.589844-14.066406-3.882812-21.351562-3.882812-4.148438 0-8.300782.417968-12.359376 1.257812zm-158.824218 0c10.003906-2.886718 20.613281-2.183594 30.246094 2.058594l.242187.109375c12.078125 5.320313 26.183594 5.246094 38.707031-.210937 9.953125-4.339844 21.40625-4.847657 31.761719-1.464844v56.078125c-11.640625-2.746094-24.144531-1.988281-35.300781 2.269531-10.152344 3.875-21.796875 3.871094-31.945313 0-6.785156-2.589844-14.070312-3.882812-21.351562-3.882812-4.152344 0-8.300781.417968-12.359375 1.257812zm0 0"/></svg>