<svg id="Layer_3" enable-background="new 0 0 64 64" height="512" viewBox="0 0 64 64" width="512" xmlns="http://www.w3.org/2000/svg"><path d="m32.026 52c-9.212 0-17.878-4.059-23.774-11.135l-1.021-1.225 1.537-1.281 1.021 1.225c5.515 6.62 13.62 10.416 22.237 10.416 9.062 0 17.72-4.328 23.158-11.578l1.624 1.166-.016.021c-5.821 7.763-15.077 12.391-24.766 12.391z" fill="#8892a0"/><path d="m12 2h40v30h-40z" fill="#a1cdfb"/><path d="m12 25.376c2.085.405 4.26.624 6.5.624 15.188 0 27.5-9.85 27.5-22 0-.675-.044-1.341-.118-2h-33.882z" fill="#c7e2fc"/><path d="m28 20 9-9 9 9" fill="#669e4f"/><path d="m18 20 9-9 9 9" fill="#78b75b"/><circle cx="32" cy="8" fill="#e39854" r="2"/><path d="m56 37h4v25h-4z" fill="#c18e59"/><circle cx="58" cy="36" fill="#e47c6e" r="4"/><path d="m4 37h4v25h-4z" fill="#c18e59"/><circle cx="6" cy="36" fill="#e47c6e" r="4"/><g fill="#c18e59"><path d="m15 19h34v2h-34z"/><path d="m21 23h22v2h-22z"/><path d="m27 27h10v2h-10z"/></g></svg>