<?xml version="1.0" encoding="iso-8859-1"?>
<!-- Generator: Adobe Illustrator 19.0.0, SVG Export Plug-In . SVG Version: 6.00 Build 0)  -->
<svg version="1.1" id="Capa_1" xmlns="http://www.w3.org/2000/svg" xmlns:xlink="http://www.w3.org/1999/xlink" x="0px" y="0px"
	 viewBox="0 0 500.907 500.907" style="enable-background:new 0 0 500.907 500.907;" xml:space="preserve">
<g>
	<path style="fill:#4482C3;" d="M11.414,2.987h409.6c4.713,0,8.533,3.821,8.533,8.533v477.867c0,4.713-3.821,8.533-8.533,8.533
		h-409.6c-4.713,0-8.533-3.82-8.533-8.533V11.52C2.881,6.807,6.701,2.987,11.414,2.987z"/>
	<g>
		<path style="fill:#E4C05C;" d="M327.147,456.533v44.373H105.281v-44.373c0-61.267,49.667-110.933,110.933-110.933
			S327.147,395.267,327.147,456.533L327.147,456.533z"/>
		<path style="fill:#E4C05C;" d="M327.147,0v44.373c0,61.267-49.667,110.933-110.933,110.933S105.281,105.64,105.281,44.373V0
			H327.147z"/>
	</g>
	<path style="fill:#4482C3;" d="M429.547,11.52v477.867c-0.014,4.707-3.826,8.52-8.533,8.533h-98.133v-42.667
		c0-58.91-47.756-106.667-106.667-106.667s-106.667,47.756-106.667,106.667v42.667H11.414c-4.707-0.014-8.52-3.826-8.533-8.533
		V11.52C2.894,6.813,6.707,3,11.414,2.987h98.133v42.667c0,58.91,47.756,106.667,106.667,106.667s106.667-47.756,106.667-106.667
		V2.987h98.133C425.721,3,429.534,6.813,429.547,11.52z"/>
	<g>
		<path style="fill:#E6E7E8;" d="M254.187,246.187c-2.073-19.411-18.452-34.133-37.973-34.133s-35.9,14.722-37.973,34.133H2.881
			v8.533h175.36c2.073,19.411,18.452,34.133,37.973,34.133s35.9-14.722,37.973-34.133h175.361v-8.533H254.187z M216.214,280.32
			c-14.802-0.058-27.328-10.95-29.44-25.6h58.88C243.541,269.37,231.016,280.262,216.214,280.32L216.214,280.32z M186.774,246.187
			c2.058-14.68,14.616-25.6,29.44-25.6c14.823,0,27.381,10.92,29.44,25.6H186.774z"/>
		<path style="fill:#E6E7E8;" d="M246.081,2.987v70.059c-7.174-9.208-18.194-14.592-29.867-14.592s-22.693,5.384-29.867,14.592
			V2.987h-8.533v93.867c0,21.208,17.192,38.4,38.4,38.4s38.4-17.192,38.4-38.4V2.987H246.081z M216.214,126.72
			c-14.802-0.058-27.328-10.95-29.44-25.6h58.88C243.541,115.77,231.016,126.662,216.214,126.72L216.214,126.72z M186.774,92.587
			c2.058-14.68,14.616-25.6,29.44-25.6c14.823,0,27.381,10.92,29.44,25.6H186.774z"/>
		<path style="fill:#E6E7E8;" d="M331.414,2.987v42.667c0,63.623-51.577,115.2-115.2,115.2s-115.2-51.577-115.2-115.2V2.987h8.533
			v42.667c0,58.91,47.756,106.667,106.667,106.667s106.667-47.756,106.667-106.667V2.987H331.414z"/>
		<path style="fill:#E6E7E8;" d="M216.214,365.653c-21.195,0.032-38.368,17.205-38.4,38.4v93.867h8.533v-70.059
			c7.174,9.208,18.194,14.592,29.867,14.592c11.673,0,22.693-5.384,29.867-14.592v70.059h8.533v-93.867
			C254.582,382.859,237.408,365.685,216.214,365.653z M216.214,433.92c-14.802-0.058-27.328-10.95-29.44-25.6h58.88
			C243.541,422.97,231.016,433.862,216.214,433.92L216.214,433.92z M186.774,399.787c2.058-14.68,14.616-25.6,29.44-25.6
			c14.823,0,27.381,10.92,29.44,25.6H186.774z"/>
		<path style="fill:#E6E7E8;" d="M331.414,455.253v42.667h-8.533v-42.667c0-58.91-47.756-106.667-106.667-106.667
			s-106.667,47.756-106.667,106.667v42.667h-8.533v-42.667c0-63.623,51.577-115.2,115.2-115.2S331.414,391.63,331.414,455.253
			L331.414,455.253z"/>
	</g>
	<path style="fill:#E57E25;" d="M486.123,183.211c-1.546,2.738-3.285,5.361-5.205,7.851c-2.348,3.108-4.915,6.045-7.68,8.789
		c-6.323,6.317-13.61,11.588-21.589,15.616c-2.517,1.296-5.11,2.436-7.767,3.413c-2.816,1.105-5.694,2.045-8.619,2.816
		c-2.688,0.777-5.425,1.376-8.192,1.792l-3.84,0.512c-0.509,0.071-1.022,0.099-1.535,0.085c-1.793,0.256-3.5,0.341-5.292,0.427
		h-0.511c-1.592,0.1-3.19,0.071-4.778-0.085c-4.15,0.016-8.293-0.356-12.374-1.11c-2.446-0.512-4.892-1.024-7.339-1.536
		c-2.389-0.683-4.693-1.365-7.083-2.219c-2.354-0.842-4.661-1.811-6.911-2.901c-6.644-3.047-12.844-6.98-18.432-11.691
		c-1.877-1.621-3.754-3.328-5.546-5.12c-2.897-2.846-5.552-5.929-7.937-9.216c-2.024-2.559-3.85-5.269-5.461-8.107
		c-1.255-2.127-2.395-4.321-3.413-6.571c-1.091-2.25-2.059-4.558-2.901-6.912c-0.906-2.305-1.648-4.672-2.219-7.083
		c-0.671-2.387-1.213-4.808-1.621-7.253c-0.992-5.574-1.393-11.238-1.196-16.896v-0.853c0.085-1.707,0.171-3.499,0.341-5.205
		c0.015-0.488,0.072-0.973,0.171-1.451l0.513-3.84c0.512-2.816,1.108-5.547,1.877-8.277c0.878-3.401,1.989-6.737,3.327-9.984
		c1.238-3.002,2.634-5.936,4.182-8.789c3.836-6.976,8.665-13.357,14.336-18.944c3.142-3.147,6.538-6.03,10.154-8.619
		c2.736-2.028,5.616-3.854,8.619-5.461c1.805-1.102,3.687-2.071,5.631-2.901h0.085c4.572-2.145,9.346-3.831,14.251-5.035
		c13.594-3.512,27.85-3.571,41.472-0.171c0.411,0.063,0.813,0.177,1.195,0.341h0.085c1.504,0.336,2.986,0.764,4.437,1.28
		c0.666,0.16,1.321,0.359,1.963,0.597c0.683,0.256,1.28,0.512,1.963,0.768c0.511,0.171,1.109,0.427,1.622,0.597
		c3.468,1.379,6.834,3.004,10.07,4.864c4.708,2.619,9.139,5.707,13.227,9.216c1.759,1.415,3.44,2.924,5.035,4.523
		c4.199,4.236,7.945,8.897,11.178,13.909c2.959,4.482,5.447,9.258,7.425,14.251c0.264,0.554,0.492,1.124,0.683,1.707
		c0.099,0.222,0.185,0.45,0.255,0.683l0.513,1.28c0.171,0.512,0.341,1.024,0.513,1.621c0.427,1.451,0.939,2.901,1.279,4.352
		c0.171,0.512,0.256,0.939,0.427,1.451C500.914,141.293,497.538,164.127,486.123,183.211L486.123,183.211z"/>
	<path style="fill:#805333;" d="M492.778,111.019c-0.084,5.291-0.17,9.387-0.17,10.837c-0.044,3.797-0.329,7.588-0.853,11.349
		c-0.736,7.248-4.034,13.996-9.301,19.029c-2.558,2.339-5.671,3.984-9.045,4.779c-2.399,7.684-5.723,15.048-9.899,21.931
		c3.328,0.768,6.656,1.536,9.728,2.133c4.437,0.853,8.789,1.536,12.885,2.133c-1.546,2.738-3.285,5.361-5.205,7.851
		c-3.073-0.427-6.145-0.939-9.217-1.536c-4.267-0.853-8.789-1.877-13.311-2.987c-5.016,6.762-10.8,12.919-17.237,18.347
		c4.737,2.035,8.5,5.828,10.497,10.581c-2.517,1.296-5.11,2.436-7.767,3.413c-0.255-1.195-1.963-5.205-10.411-7.936
		c-7.024,5.169-14.507,9.682-22.356,13.483c-4.15,0.016-8.293-0.356-12.374-1.109c-1.24-0.165-2.467-0.422-3.67-0.768
		c9.251-3.845,18.158-8.47,26.625-13.824c-6.816-0.558-13.666-0.558-20.481,0c-14.191,1.222-28.487-0.049-42.24-3.755
		c-1.877-1.621-3.754-3.328-5.546-5.12c-2.897-2.846-5.552-5.929-7.936-9.216c0.094-0.011,0.187,0.02,0.255,0.085
		c17.005,8.253,35.995,11.536,54.784,9.472c10.397-1.043,20.891-0.554,31.147,1.451c6.593-5.103,12.552-10.976,17.75-17.493
		c-7.254-2.048-14.336-4.352-21.164-6.912c-8.192,12.032-23.04,16.299-38.826,16.299c-16.22-0.312-32.233-3.7-47.189-9.984
		c-0.769-0.341-1.451-0.683-2.219-1.024c-1.255-2.127-2.395-4.321-3.413-6.571c-1.091-2.25-2.059-4.558-2.901-6.912
		c1.607,1.163,3.288,2.217,5.035,3.157c2.233,1.301,4.541,2.47,6.911,3.499c19.798,8.619,59.904,16.043,74.497-1.707
		c-33.834-13.834-63.292-36.568-85.249-65.792c1.238-3.002,2.634-5.936,4.182-8.789c21.426,29.986,50.973,53.227,85.163,66.987
		c5.803-18.091-2.304-39.424-11.178-52.48c-10.377-15.705-24.363-28.696-40.789-37.888c-2.799-1.597-5.708-2.994-8.704-4.181
		c2.736-2.028,5.616-3.854,8.619-5.461c1.45,0.683,2.901,1.451,4.181,2.219c17.611,9.833,32.619,23.73,43.776,40.533
		c10.155,14.848,19.37,39.595,12.117,60.501c7.167,2.645,14.763,5.12,22.442,7.168c4.162-6.345,7.489-13.199,9.899-20.395
		c-4.863-1.716-9.109-4.834-12.203-8.96c-1.539-2.053-2.963-4.19-4.267-6.4l-5.119-9.216c-5.974-10.496-12.033-21.419-18.859-31.488
		c-7.195-13.059-17.626-24.049-30.293-31.915c-5.035-2.455-10.417-4.124-15.958-4.949c4.572-2.145,9.346-3.831,14.251-5.035
		c1.793,0.683,3.67,1.451,5.376,2.304c14.25,6.827,24.065,20.395,33.792,34.816c6.913,10.411,13.141,21.419,19.115,32.085
		l5.121,9.131c1.065,1.875,2.262,3.672,3.583,5.376c2.021,2.616,4.701,4.648,7.765,5.888c4.837-27.217,0.829-55.268-11.435-80.043
		c-0.243-0.394-0.416-0.827-0.512-1.28c4.708,2.619,9.139,5.707,13.227,9.216c9.021,22.303,11.737,46.657,7.851,70.4
		c0.275-0.141,0.533-0.312,0.769-0.512c3.696-3.753,5.986-8.665,6.485-13.909c0.477-3.221,0.734-6.472,0.768-9.728
		c0-3.328,0.341-16.469,0.341-27.819c2.958,4.482,5.446,9.258,7.424,14.251c0.264,0.554,0.492,1.124,0.683,1.707
		C492.623,110.558,492.708,110.786,492.778,111.019L492.778,111.019z"/>
</g>
<g>
</g>
<g>
</g>
<g>
</g>
<g>
</g>
<g>
</g>
<g>
</g>
<g>
</g>
<g>
</g>
<g>
</g>
<g>
</g>
<g>
</g>
<g>
</g>
<g>
</g>
<g>
</g>
<g>
</g>
</svg>
