<?xml version="1.0" encoding="iso-8859-1"?>
<!-- Generator: Adobe Illustrator 19.0.0, SVG Export Plug-In . SVG Version: 6.00 Build 0)  -->
<svg version="1.1" id="Capa_1" xmlns="http://www.w3.org/2000/svg" xmlns:xlink="http://www.w3.org/1999/xlink" x="0px" y="0px"
	 viewBox="0 0 512.001 512.001" style="enable-background:new 0 0 512.001 512.001;" xml:space="preserve">
<g>
	<polygon style="fill:#FD6244;" points="10,136.001 33,196.001 53,196.001 459,196.001 479,196.001 502,136.001 	"/>
	<path style="fill:#FD6244;" d="M10,276.001v40h492v-40C492.67,276.001,10,276.001,10,276.001z"/>
</g>
<path style="fill:#E3E3E3;" d="M379,317.001v-41h80v-80h-80v-40h40v-20v-40H93v40v20h40v40H53v80h80v40H33c0,4.966,0,181.208,0,186
	h446c0-4.8,0-180.155,0-185H379z"/>
<polygon style="fill:#FD6244;" points="459,96.001 419,96.001 93,96.001 53,96.001 256,10.001 "/>
<path style="fill:#57555C;" d="M439,459.001h-20v-43c-11.218,0-93.903,0-103,0v-100c0-33.137-26.859-60-60-60
	c-33.14,0-60,26.86-60,60v100c-9.097,0-91.782,0-103,0v43H73l-40,43h446L439,459.001z"/>
<path d="M276,326.001c-5.52,0-10,4.48-10,10s4.48,10,10,10s10-4.48,10-10S281.52,326.001,276,326.001z"/>
<path d="M176,206.001c5.52,0,10-4.48,10-10s-4.48-10-10-10s-10,4.48-10,10S170.48,206.001,176,206.001z"/>
<path d="M23,492.001H10c-5.523,0-10,4.478-10,10s4.477,10,10,10c6.04,0,488.048,0,492,0c5.522,0,10-4.478,10-10s-4.478-10-10-10h-13
	v-165h13c5.522,0,10-4.478,10-10v-41c0-5.522-4.478-10-10-10h-33v-60h10c4.142,0,7.854-2.554,9.338-6.421l23-60
	c1.178-3.074,0.768-6.532-1.098-9.245s-4.947-4.334-8.24-4.334h-73v-20h30c4.756,0,8.854-3.35,9.8-8.01s-1.521-9.343-5.899-11.198
	l-203-86c-2.492-1.057-5.309-1.057-7.801,0l-203,86c-4.379,1.855-6.846,6.538-5.899,11.198c0.946,4.66,5.044,8.01,9.8,8.01h30v20H10
	c-3.292,0-6.375,1.621-8.24,4.334c-1.866,2.713-2.276,6.171-1.098,9.245l23,60c1.483,3.868,5.197,6.421,9.338,6.421h10v60H10
	c-5.523,0-10,4.478-10,10v40c0,5.522,4.477,10,10,10h13V492.001z M43,367.001h80v39H93c-5.523,0-10,4.478-10,10v33H73
	c-2.777,0-5.43,1.155-7.322,3.189L43,476.57V367.001z M369,166.001v240h-43v-90c0-18.691-7.279-36.27-20.502-49.504
	c-13.228-13.216-30.806-20.496-49.498-20.496c-38.598,0-70,31.402-70,70v90h-43v-240H369z M469,476.569l-22.678-24.379
	c-1.892-2.033-4.544-3.189-7.322-3.189h-10v-33c0-5.522-4.478-10-10-10h-30v-40h80V476.569z M409,426.001v23H103v-23
	C115.477,426.001,396.869,426.001,409,426.001z M306,406.001H206v-90c0-27.57,22.43-50,50-50c13.352,0,25.91,5.201,35.355,14.639
	c9.444,9.451,14.645,22.01,14.645,35.361V406.001z M55.96,492.001l21.396-23c11.106,0,331.003,0,357.289,0l21.396,23H55.96z
	 M469,346.001h-80v-19h80V346.001z M492,307.001c-6.845,0-97.882,0-103,0v-21h103V307.001z M449,266.001h-60v-60h60V266.001z
	 M487.457,146.001l-15.333,40H389v-20h30c5.522,0,10-4.478,10-10v-10H487.457z M256,20.862l153.76,65.139H102.24L256,20.862z
	 M409,106.001v40H103v-40H409z M24.543,146.001H83v10c0,5.522,4.477,10,10,10h30v20H39.876L24.543,146.001z M63,206.001h60v60H63
	V206.001z M20,286.001h103v20H20V286.001z M123,326.001v21H43v-21H123z"/>
<path d="M216,206.001h120c5.522,0,10-4.478,10-10s-4.478-10-10-10H216c-5.523,0-10,4.478-10,10S210.477,206.001,216,206.001z"/>
<g>
</g>
<g>
</g>
<g>
</g>
<g>
</g>
<g>
</g>
<g>
</g>
<g>
</g>
<g>
</g>
<g>
</g>
<g>
</g>
<g>
</g>
<g>
</g>
<g>
</g>
<g>
</g>
<g>
</g>
</svg>
