<svg height="512" viewBox="0 0 256 256" width="512" xmlns="http://www.w3.org/2000/svg"><rect fill="#707070" height="16.333" rx="3.708" width="9.318" x="74.174" y="95.68"/><path d="m30.25 123.514h195.5v93h-195.5z" fill="#63bce7"/><path d="m30.25 123.514h16v93h-16z" fill="#6377e7"/><path d="m209.75 123.514h16v93h-16z" fill="#63e2e7"/><path d="m39.875 216.514h12.5v14.75h-12.5z" fill="#707070"/><path d="m203.625 216.514h12.5v14.75h-12.5z" fill="#707070"/><path d="m30.25 38.014h27.929a0 0 0 0 1 0 0v19.035a13.964 13.964 0 0 1 -13.965 13.965 13.964 13.964 0 0 1 -13.964-13.965v-19.035a0 0 0 0 1 0 0z" fill="#f46275"/><path d="m46.25 57.049v-19.035h-16v19.035a13.964 13.964 0 0 0 13.964 13.965 13.888 13.888 0 0 0 8-2.529 13.94 13.94 0 0 1 -5.964-11.436z" fill="#f43075"/><path d="m58.179 38.014h27.928a0 0 0 0 1 0 0v19.035a13.964 13.964 0 0 1 -13.964 13.965 13.964 13.964 0 0 1 -13.964-13.965v-19.035a0 0 0 0 1 0 0z" fill="#f8af23"/><path d="m86.107 38.014h27.929a0 0 0 0 1 0 0v19.035a13.964 13.964 0 0 1 -13.964 13.964 13.964 13.964 0 0 1 -13.965-13.964v-19.035a0 0 0 0 1 0 0z" fill="#f46275"/><path d="m114.036 38.014h27.929a0 0 0 0 1 0 0v19.035a13.964 13.964 0 0 1 -13.965 13.965 13.964 13.964 0 0 1 -13.964-13.964v-19.036a0 0 0 0 1 0 0z" fill="#f8af23"/><path d="m141.964 38.014h27.929a0 0 0 0 1 0 0v19.035a13.964 13.964 0 0 1 -13.964 13.964 13.964 13.964 0 0 1 -13.964-13.964v-19.035a0 0 0 0 1 -.001 0z" fill="#f46275"/><path d="m169.893 38.014h27.929a0 0 0 0 1 0 0v19.035a13.964 13.964 0 0 1 -13.964 13.964 13.964 13.964 0 0 1 -13.964-13.964v-19.035a0 0 0 0 1 -.001 0z" fill="#f8af23"/><path d="m197.821 38.014h27.929a0 0 0 0 1 0 0v19.035a13.964 13.964 0 0 1 -13.964 13.964 13.964 13.964 0 0 1 -13.964-13.964v-19.035a0 0 0 0 1 -.001 0z" fill="#f46275"/><path d="m46.625 13.764h162.75a24.25 24.25 0 0 1 24.25 24.25 0 0 0 0 1 0 0h-211.25a0 0 0 0 1 0 0 24.25 24.25 0 0 1 24.25-24.25z" fill="#63bce7"/><path d="m62.625 13.764h-16a24.25 24.25 0 0 0 -24.25 24.25h16a24.25 24.25 0 0 1 24.25-24.25z" fill="#6377e7"/><path d="m193.375 13.764h16a24.25 24.25 0 0 1 24.25 24.25h-16a24.25 24.25 0 0 0 -24.25-24.25z" fill="#63e2e7"/><path d="m72.25 105.514h13.167a18 18 0 0 1 18 18 0 0 0 0 1 0 0h-49.167a0 0 0 0 1 0 0 18 18 0 0 1 18-18z" fill="#9e9e9e"/><path d="m86.833 105.585c-.469-.037-.938-.072-1.417-.072h-13.166a18 18 0 0 0 -18 18h16a17.99 17.99 0 0 1 16.583-17.928z" fill="#707070"/><path d="m110.833 112.014h21v11.5h-21z" fill="#9e9e9e"/><rect fill="#f46275" height="19.333" rx="9.667" width="129.333" x="63.333" y="160.347"/><path d="m89.27 134.41h77.46a25.937 25.937 0 0 1 25.937 25.937 0 0 0 0 1 0 0h-129.334a0 0 0 0 1 0 0 25.937 25.937 0 0 1 25.937-25.937z" fill="#f8af23"/><path d="m89.27 179.68h77.46a25.937 25.937 0 0 1 25.937 25.937 0 0 0 0 1 0 0h-129.334a0 0 0 0 1 0 0 25.937 25.937 0 0 1 25.937-25.937z" fill="#f8af23" transform="matrix(-1 0 0 -1 256 385.298)"/><path d="m209.75 57.049v-19.035h16v19.035a13.964 13.964 0 0 1 -13.964 13.964 13.888 13.888 0 0 1 -8-2.529 13.94 13.94 0 0 0 5.964-11.435z" fill="#f48875"/><g fill="#3f3679"><path d="m27.323 240.736h-18a1.5 1.5 0 1 0 0 3h18a1.5 1.5 0 1 0 0-3z"/><path d="m246.68 240.736h-18a1.5 1.5 0 0 0 0 3h18a1.5 1.5 0 0 0 0-3z"/><path d="m218.479 240.736h-180.958a1.5 1.5 0 0 0 0 3h180.958a1.5 1.5 0 0 0 0-3z"/><path d="m9.32 232.764h237.36a1.5 1.5 0 0 0 0-3h-29.055v-11.75h8.125a1.5 1.5 0 0 0 1.5-1.5v-93a1.5 1.5 0 0 0 -1.5-1.5h-12.464v-49.576a15.484 15.484 0 0 0 13.964-15.389v-17.535h6.375a1.5 1.5 0 0 0 1.5-1.5 25.779 25.779 0 0 0 -25.75-25.75h-162.75a25.779 25.779 0 0 0 -25.75 25.75 1.5 1.5 0 0 0 1.5 1.5h6.375v17.535a15.484 15.484 0 0 0 13.964 15.389v49.576h-12.464a1.5 1.5 0 0 0 -1.5 1.5v93a1.5 1.5 0 0 0 1.5 1.5h8.125v11.75h-29.055a1.5 1.5 0 1 0 0 3zm192.805-14.75v11.75h-148.25v-11.75zm12.5 11.75h-9.5v-11.75h9.5zm9.625-172.715a12.464 12.464 0 1 1 -24.929 0v-17.535h24.929zm-27.929 0a12.464 12.464 0 1 1 -24.928 0v-17.535h24.928zm-27.928 0a12.464 12.464 0 1 1 -24.929 0v-17.535h24.929zm-27.929 0a12.464 12.464 0 1 1 -24.929 0v-17.535h24.929zm-27.929 0a12.464 12.464 0 1 1 -24.929 0v-17.535h24.929zm-27.929 0a12.464 12.464 0 1 1 -24.928 0v-17.535h24.929zm-58.69-28.41h135.084a1.5 1.5 0 0 0 0-3h-133.429a22.729 22.729 0 0 1 19.054-10.375h162.75a22.78 22.78 0 0 1 22.7 21.25h-208.151a22.552 22.552 0 0 1 1.993-7.875zm5.833 28.41v-17.535h24.93v17.535a12.464 12.464 0 1 1 -24.929 0zm13.965 15.389a15.482 15.482 0 0 0 12.464-8.789 15.431 15.431 0 0 0 27.928 0 15.431 15.431 0 0 0 27.929 0 15.431 15.431 0 0 0 27.929 0 15.431 15.431 0 0 0 27.929 0 15.431 15.431 0 0 0 27.928 0 15.482 15.482 0 0 0 12.464 8.789v49.576h-76.952v-10a1.5 1.5 0 0 0 -1.5-1.5h-21a1.5 1.5 0 0 0 -1.5 1.5v10h-4.493a19.513 19.513 0 0 0 -19.424-18h-.424v-4.625a5.214 5.214 0 0 0 -5.208-5.208h-1.9a5.214 5.214 0 0 0 -5.208 5.208v4.625h-.426a19.513 19.513 0 0 0 -19.424 18h-7.112zm84.619 49.576h-18v-8.5h18zm-48.341-18h-6.318v-4.625a2.21 2.21 0 0 1 2.208-2.208h1.9a2.211 2.211 0 0 1 2.208 2.208zm3.424 3a16.522 16.522 0 0 1 16.433 15h-46.032a16.522 16.522 0 0 1 16.433-15zm-53.667 18h192.5v90h-192.499zm9.625 93h9.5v11.75h-9.5z"/><path d="m61.833 179.681a27.468 27.468 0 0 0 27.437 27.437h77.459a27.468 27.468 0 0 0 27.437-27.437 1.5 1.5 0 0 0 -1.5-1.5h-2.076a11.113 11.113 0 0 0 0-16.334h2.076a1.5 1.5 0 0 0 1.5-1.5 27.468 27.468 0 0 0 -27.437-27.437h-77.458a27.468 27.468 0 0 0 -27.437 27.437 1.5 1.5 0 0 0 1.5 1.5h2.076a11.113 11.113 0 0 0 0 16.334h-2.077a1.5 1.5 0 0 0 -1.5 1.5zm3.045-20.834a24.468 24.468 0 0 1 24.393-22.937h77.459a24.468 24.468 0 0 1 24.392 22.937h-126.243zm-.045 11.167a8.176 8.176 0 0 1 8.167-8.167h110a8.167 8.167 0 0 1 0 16.334h-110a8.176 8.176 0 0 1 -8.167-8.167zm8.167 11.167h118.121a24.468 24.468 0 0 1 -24.392 22.937h-77.458a24.468 24.468 0 0 1 -24.392-22.937z"/><path d="m177.563 166.249-4.061 4.06a3.176 3.176 0 0 1 -4.387 0l-2.154-2.153a6.109 6.109 0 0 0 -8.629 0l-2.154 2.153a3.176 3.176 0 0 1 -4.387 0l-2.154-2.153a6.11 6.11 0 0 0 -8.629 0l-2.154 2.153a3.176 3.176 0 0 1 -4.387 0l-2.154-2.153a6.109 6.109 0 0 0 -8.629 0l-2.154 2.153a3.176 3.176 0 0 1 -4.387 0l-2.154-2.153a6.11 6.11 0 0 0 -8.629 0l-2.154 2.153a3.176 3.176 0 0 1 -4.387 0l-2.154-2.153a6.109 6.109 0 0 0 -8.629 0l-2.154 2.153a3.176 3.176 0 0 1 -4.387 0l-4.06-4.06a1.5 1.5 0 0 0 -2.121 2.121l4.06 4.06a6.1 6.1 0 0 0 8.63 0l2.154-2.153a3.176 3.176 0 0 1 4.387 0l2.155 2.153a6.1 6.1 0 0 0 8.63 0l2.154-2.153a3.107 3.107 0 0 1 4.387 0l2.153 2.153a6.1 6.1 0 0 0 8.63 0l2.154-2.153a3.106 3.106 0 0 1 4.387 0l2.153 2.153a6.1 6.1 0 0 0 8.63 0l2.154-2.153a3.107 3.107 0 0 1 4.387 0l2.153 2.153a6.1 6.1 0 0 0 8.63 0l2.154-2.153a3.176 3.176 0 0 1 4.387 0l2.153 2.153a6.1 6.1 0 0 0 8.63 0l4.06-4.06a1.5 1.5 0 0 0 -2.121-2.121z"/><path d="m175.5 28.639h17.167a1.5 1.5 0 0 0 0-3h-17.167a1.5 1.5 0 0 0 0 3z"/></g></svg>