<?xml version="1.0" encoding="iso-8859-1"?>
<!-- Generator: Adobe Illustrator 19.0.0, SVG Export Plug-In . SVG Version: 6.00 Build 0)  -->
<svg version="1.1" id="Capa_1" xmlns="http://www.w3.org/2000/svg" xmlns:xlink="http://www.w3.org/1999/xlink" x="0px" y="0px"
	 viewBox="0 0 512 512" style="enable-background:new 0 0 512 512;" xml:space="preserve">
<rect x="236.02" y="316" style="fill:#9B4B14;" width="39.997" height="186"/>
<rect x="156.02" y="246" style="fill:#FAC800;" width="39.997" height="70"/>
<g>
	<rect x="31.03" y="382" style="fill:#5AA096;" width="119.99" height="40"/>
	<rect x="361.01" y="382" style="fill:#5AA096;" width="119.99" height="40"/>
</g>
<rect x="36.03" y="10" style="fill:#F5AA8C;" width="439.97" height="40"/>
<path style="fill:#F03C32;" d="M10.033,130.364c0,11.046,10.012,20,22.362,20s22.362-8.954,22.362-20v-20H10.033V130.364z"/>
<path style="fill:#E6E6E6;" d="M54.757,130.364c0,11.046,10.012,20,22.362,20s22.362-8.954,22.362-20v-20H54.757V130.364z"/>
<path style="fill:#F03C32;" d="M99.482,130.364c0,11.046,10.012,20,22.362,20s22.362-8.954,22.362-20v-20H99.482V130.364z"/>
<path style="fill:#E6E6E6;" d="M144.206,130.364c0,11.046,10.012,20,22.362,20s22.362-8.954,22.362-20v-20h-44.724V130.364z"/>
<path style="fill:#F03C32;" d="M188.93,130.364c0,11.046,10.012,20,22.362,20s22.362-8.954,22.362-20v-20H188.93V130.364z"/>
<path style="fill:#E6E6E6;" d="M233.654,130.364c0,11.046,10.012,20,22.362,20c12.35,0,22.362-8.954,22.362-20v-20h-44.724
	L233.654,130.364L233.654,130.364z"/>
<path style="fill:#F03C32;" d="M278.378,130.364c0,11.046,10.012,20,22.362,20s22.362-8.954,22.362-20v-20h-44.724V130.364z"/>
<path style="fill:#E6E6E6;" d="M323.102,130.364c0,11.046,10.012,20,22.362,20s22.362-8.954,22.362-20v-20h-44.724V130.364z"/>
<path style="fill:#F03C32;" d="M367.826,130.364c0,11.046,10.012,20,22.362,20s22.362-8.954,22.362-20v-20h-44.724V130.364z"/>
<path style="fill:#E6E6E6;" d="M412.55,130.364c0,11.046,10.012,20,22.362,20s22.362-8.954,22.362-20v-20H412.55V130.364z"/>
<g>
	<path style="fill:#F03C32;" d="M457.274,130.364c0,11.046,10.012,20,22.362,20s22.362-8.954,22.362-20v-20h-44.724V130.364z"/>
	<polygon style="fill:#F03C32;" points="115.759,50 99.748,110 144.396,110 155.832,50 	"/>
</g>
<polygon style="fill:#E6E6E6;" points="155.832,50 144.396,110 189.044,110 195.906,50 "/>
<g>
	<polygon style="fill:#F03C32;" points="195.906,50 189.044,110 233.692,110 235.979,50 	"/>
	<polygon style="fill:#F03C32;" points="36.032,50 10.033,110 55.369,110 75.69,50 	"/>
</g>
<polygon style="fill:#E6E6E6;" points="75.69,50 55.369,110 99.748,110 115.759,50 "/>
<g>
	<polygon style="fill:#F03C32;" points="356.199,50 367.635,110 412.283,110 396.273,50 	"/>
	<polygon style="fill:#F03C32;" points="501.998,110 476,50 436.346,50 456.931,110 	"/>
</g>
<g>
	<polygon style="fill:#E6E6E6;" points="436.346,50 396.273,50 412.283,110 456.931,110 	"/>
	<polygon style="fill:#E6E6E6;" points="235.979,50 233.692,110 278.34,110 276.053,50 	"/>
	<polygon style="fill:#E6E6E6;" points="316.126,50 322.988,110 367.635,110 356.199,50 	"/>
</g>
<polygon style="fill:#F03C32;" points="276.053,50 278.34,110 322.988,110 316.126,50 "/>
<path d="M151.02,372c-32.669-0.042-64.705-22.615-85.074-46.563c-11.557-13.587-20.988-28.943-28.203-45.244
	c-5.706-12.891-10.054-26.423-12.919-40.227c-1.087-5.235-6.101-8.695-11.376-7.84c-5.278,0.848-8.956,5.697-8.349,11.009
	l15.934,139.43v38.144c0,0-20.642,78.64-20.671,78.752c-3.22,12.269,16.029,17.703,19.343,5.078L38.745,432h102.279
	c0,0,0,69.813,0,70c0,12.852,19.999,12.941,19.999,0V382C161.023,376.478,156.546,372,151.02,372z M33.596,313.418
	c15.427,25.555,34.387,45.23,56.166,58.582H39.954C39.954,372,33.456,313.187,33.596,313.418z M141.024,412H41.031v-20h99.993
	L141.024,412L141.024,412z"/>
<path d="M490.999,420.709v-38.144l15.934-139.43c0.606-5.308-3.067-10.15-8.34-11.003c-5.274-0.853-10.287,2.596-11.383,7.824
	c-0.065,0.313-6.792,31.682-26.188,63.608c-25.279,41.612-59.236,64.651-100.927,68.477c-5.194,0.477-9.09,4.846-9.086,9.961V502
	c0,5.522,4.477,10,9.999,10s9.999-4.478,9.999-10v-70h102.279c0,0,19.012,72.433,19.04,72.539c1.379,5.252,6.971,8.51,12.211,7.133
	c5.341-1.401,8.535-6.869,7.133-12.211L490.999,420.709z M471,412h-99.993v-20H471V412z M472.077,372H422.26
	c21.785-13.348,40.747-33.024,56.176-58.582C478.576,313.187,472.077,372,472.077,372z"/>
<path d="M321.011,492h-34.997V326h114.992c5.523,0,9.999-4.478,9.999-10s-4.477-10-9.999-10H206.019v-60c0-5.522-4.477-10-9.999-10
	h-39.997c-5.523,0-9.999,4.478-9.999,10v60h-34.997c-5.523,0-9.999,4.478-9.999,10s4.477,10,9.999,10h114.992v166H191.02
	c-5.523,0-9.999,4.478-9.999,10s4.477,10,9.999,10h129.991c5.523,0,9.999-4.478,9.999-10S326.534,492,321.011,492z M186.021,306
	h-19.999v-50h19.999V306z M266.015,492h-19.999V326h19.999V492z"/>
<path d="M511.981,110.037c0.005-1.36-0.251-2.727-0.808-4.012l-25.174-58.098V10c0-5.522-4.477-10-9.999-10H36.032
	c-5.523,0-9.999,4.478-9.999,10v37.926L0.858,106.024c-0.557,1.286-0.813,2.652-0.808,4.012c-0.004,0.109-0.016,0.216-0.016,0.327
	v20c0,16.542,14.518,30,32.361,30c8.669,0,16.546-3.183,22.362-8.346c5.816,5.163,13.693,8.346,22.362,8.346
	s16.547-3.183,22.362-8.346c5.816,5.163,13.693,8.346,22.362,8.346s16.546-3.183,22.362-8.346
	c5.815,5.163,13.693,8.346,22.362,8.346s16.547-3.183,22.362-8.346c5.816,5.163,13.693,8.346,22.362,8.346
	s16.546-3.183,22.362-8.346c5.816,5.163,13.693,8.346,22.362,8.346c8.669,0,16.547-3.183,22.362-8.346
	c5.815,5.163,13.693,8.346,22.362,8.346s16.547-3.183,22.362-8.346c5.816,5.163,13.693,8.346,22.362,8.346
	s16.547-3.183,22.362-8.346c5.815,5.163,13.693,8.346,22.362,8.346s16.547-3.183,22.362-8.346
	c5.816,5.163,13.693,8.346,22.362,8.346s16.547-3.183,22.362-8.346c5.815,5.163,13.693,8.346,22.362,8.346
	c17.844,0,32.361-13.458,32.361-30v-20C511.997,110.253,511.985,110.146,511.981,110.037z M44.758,130.363
	c0,5.514-5.546,10-12.362,10c-6.817,0-12.363-4.486-12.363-10v-10h24.725C44.758,120.363,44.758,130.363,44.758,130.363z
	 M48.199,100H25.264l17.332-40h19.149L48.199,100z M89.482,130.363c0,5.514-5.546,10-12.363,10s-12.363-4.486-12.363-10v-10h24.726
	V130.363z M92.068,100H69.313L82.86,60h19.881L92.068,100z M134.206,130.363c0,5.514-5.546,10-12.362,10
	c-6.817,0-12.363-4.486-12.363-10v-10h24.725V130.363z M136.123,100h-23.357l10.674-40h20.307L136.123,100z M178.93,130.363
	c0,5.514-5.546,10-12.363,10s-12.363-4.486-12.363-10v-10h24.726L178.93,130.363L178.93,130.363z M180.123,100h-23.641l7.624-40
	h20.592L180.123,100z M223.654,130.363c0,5.514-5.546,10-12.362,10c-6.817,0-12.363-4.486-12.363-10v-10h24.725V130.363z
	 M224.067,100h-23.815l4.574-40h20.765L224.067,100z M268.379,130.363c0,5.514-5.546,10-12.363,10s-12.363-4.486-12.363-10v-10
	h24.726V130.363z M244.08,100l1.524-40h20.823l1.525,40H244.08z M286.44,60h20.765l4.574,40h-23.814L286.44,60z M313.103,130.363
	c0,5.514-5.546,10-12.363,10c-6.816,0-12.362-4.486-12.362-10v-10h24.725V130.363z M327.334,60h20.592l7.624,40h-23.641L327.334,60z
	 M357.827,130.363c0,5.514-5.546,10-12.363,10s-12.363-4.486-12.363-10v-10h24.726V130.363z M46.031,40V20h419.97v20H46.031z
	 M368.285,60h20.307l10.674,40h-23.357L368.285,60z M402.551,130.363c0,5.514-5.546,10-12.363,10c-6.816,0-12.362-4.486-12.362-10
	v-10h24.725V130.363z M409.291,60h19.915l13.723,40h-22.964L409.291,60z M447.275,130.363c0,5.514-5.546,10-12.363,10
	s-12.363-4.486-12.363-10v-10h24.726V130.363z M459.353,86.246L450.349,60h19.087l17.332,40h-22.695L459.353,86.246z
	 M491.999,130.363c0,5.514-5.546,10-12.363,10c-6.816,0-12.362-4.486-12.362-10v-10h24.725V130.363z"/>
<g>
</g>
<g>
</g>
<g>
</g>
<g>
</g>
<g>
</g>
<g>
</g>
<g>
</g>
<g>
</g>
<g>
</g>
<g>
</g>
<g>
</g>
<g>
</g>
<g>
</g>
<g>
</g>
<g>
</g>
</svg>
