<svg id="Capa_1" enable-background="new 0 0 512 512" height="512" viewBox="0 0 512 512" width="512" xmlns="http://www.w3.org/2000/svg"><g><g><path d="m356.268 216.092h-200.536l49.443 36.269c15.787 11.581 25.113 29.989 25.113 49.568v48.003h51.423v-48.003c0-19.579 9.326-37.987 25.113-49.568z" fill="#365e7d"/></g><g><path d="m316.016 118.343h-120.032l26.988 19.797c9.501 6.97 15.114 18.048 15.114 29.832v58.652h35.826v-58.652c0-11.783 5.613-22.862 15.114-29.832z" fill="#365e7d"/></g><g><path d="m309.309 216.092-28.899 21.199c-15.787 11.581-25.113 29.989-25.113 49.568v63.072h26.415v-48.002c0-19.579 9.326-37.987 25.113-49.568l49.443-36.269z" fill="#2b4d66"/></g><g><path d="m269.057 118.343-6.445 4.728c-9.501 6.97-15.114 18.048-15.114 29.832v73.722h26.415v-58.652c0-11.783 5.613-22.862 15.114-29.832l26.988-19.797h-46.958z" fill="#2b4d66"/></g><g><g><path d="m333.46 490.878-12.928-9.484c-12.636-9.269-20.102-24.004-20.102-39.675v-38.185h-88.86v38.185c0 15.672-7.465 30.406-20.102 39.675l-12.928 9.484c-3.085 2.263-1.484 7.15 2.341 7.15h150.236c3.827 0 5.427-4.887 2.343-7.15z" fill="#365e7d"/></g><g><path d="m333.46 490.878-12.928-9.483c-12.636-9.27-20.101-24.004-20.101-39.676v-38.185h-35.576v44.594c0 18.302 8.718 35.51 23.476 46.336l4.858 3.564h37.93c3.825 0 5.425-4.887 2.341-7.15z" fill="#2b4d66"/></g><g><path d="m506.9 341.352h-501.8c-2.816 0-5.1 2.283-5.1 5.1v22.693c0 11.266 9.133 20.399 20.399 20.399h41.648c5.901 0 11.193 3.434 13.811 8.722 8.678 17.532 26.741 29.591 47.629 29.591h265.027c20.888 0 38.951-12.058 47.629-29.591 2.618-5.288 7.91-8.722 13.81-8.722h41.648c11.266 0 20.399-9.133 20.399-20.399v-22.693c0-2.817-2.283-5.1-5.1-5.1z" fill="#e7ecf6"/></g><g><g><path d="m506.9 341.352h-23.893c-.586 10.741-9.455 19.276-20.342 19.276h-41.648c-5.901 0-11.193 3.434-13.81 8.722-8.678 17.533-26.741 29.591-47.629 29.591h-265.027c-7.579 0-14.783-1.594-21.305-4.455 1.031 1.112 1.917 2.378 2.611 3.78 8.678 17.533 26.741 29.591 47.629 29.591h265.027c20.888 0 38.951-12.058 47.629-29.591 2.618-5.288 7.91-8.722 13.81-8.722h41.648c11.266 0 20.399-9.133 20.399-20.399v-22.693c.001-2.817-2.282-5.1-5.099-5.1z" fill="#d8e2f1"/></g></g></g><g><path d="m448.35 321.736c-2.964 0-5.773-1.766-6.96-4.68-7.016-17.214-10.573-35.367-10.573-53.954v-61.807c0-17.323-14.092-31.415-31.414-31.415-5.388 0-10.717 1.397-15.41 4.039l-60.903 34.282c-3.616 2.035-8.196.753-10.232-2.862-2.035-3.616-.753-8.197 2.862-10.232l60.902-34.281c6.939-3.906 14.816-5.971 22.78-5.971 25.607 0 46.441 20.833 46.441 46.441v61.807c0 16.634 3.183 32.879 9.461 48.284 1.566 3.842-.28 8.227-4.122 9.793-.927.377-1.888.556-2.832.556z" fill="#90d8f9"/></g><g><path d="m414.965 321.736c-3.497 0-6.629-2.455-7.353-6.015-3.424-16.804-5.16-34.017-5.16-51.162v-63.264c0-4.15 3.363-7.513 7.513-7.513s7.513 3.363 7.513 7.513v63.264c0 16.139 1.635 32.343 4.857 48.162.829 4.066-1.796 8.033-5.862 8.861-.506.104-1.011.154-1.508.154z" fill="#90d8f9"/></g><g><path d="m63.559 321.736c-.945 0-1.905-.179-2.833-.558-3.843-1.566-5.688-5.951-4.122-9.793 6.278-15.403 9.461-31.649 9.461-48.284v-61.807c0-25.607 20.833-46.441 46.441-46.441 7.964 0 15.842 2.065 22.781 5.972l60.901 34.281c3.616 2.036 4.897 6.617 2.861 10.232-2.035 3.617-6.615 4.897-10.232 2.862l-60.902-34.282c-4.694-2.643-10.022-4.04-15.41-4.04-17.322 0-31.415 14.092-31.415 31.415v61.807c0 18.589-3.557 36.742-10.573 53.955-1.186 2.915-3.995 4.681-6.958 4.681z" fill="#90d8f9"/></g><g><path d="m96.944 321.736c-.497 0-1.002-.05-1.508-.154-4.066-.829-6.69-4.795-5.862-8.861 3.223-15.817 4.857-32.022 4.857-48.162v-63.264c0-4.15 3.364-7.513 7.513-7.513s7.513 3.363 7.513 7.513v63.264c0 17.146-1.736 34.36-5.16 51.162-.725 3.56-3.857 6.015-7.353 6.015z" fill="#90d8f9"/></g><g><path d="m363.508 226.797h-215.016c-9.243 0-16.735-7.493-16.735-16.735v-.057c0-9.243 7.493-16.735 16.735-16.735h215.016c9.243 0 16.735 7.493 16.735 16.735v.057c.001 9.243-7.492 16.735-16.735 16.735z" fill="#e7ecf6"/></g><g><path d="m131.756 321.734c-4.149 0-7.513-3.363-7.513-7.513v-56.463c0-4.15 3.364-7.513 7.513-7.513s7.513 3.363 7.513 7.513v56.463c0 4.15-3.363 7.513-7.513 7.513z" fill="#90d8f9"/></g><g><path d="m380.244 321.734c-4.15 0-7.513-3.363-7.513-7.513v-56.463c0-4.15 3.363-7.513 7.513-7.513s7.513 3.363 7.513 7.513v56.463c-.001 4.15-3.364 7.513-7.513 7.513z" fill="#90d8f9"/></g><g><path d="m315.878 124.751h-119.756c-8.002 0-14.489-6.487-14.489-14.489v-.05c0-8.002 6.487-14.489 14.489-14.489h119.755c8.002 0 14.489 6.487 14.489 14.489v.05c.001 8.002-6.486 14.489-14.488 14.489z" fill="#e7ecf6"/></g><g><path d="m363.48 193.269h-46.846c9.259 0 16.764 7.506 16.764 16.764 0 9.258-7.505 16.764-16.764 16.764h46.846c9.258 0 16.764-7.506 16.764-16.764 0-9.258-7.506-16.764-16.764-16.764z" fill="#d8e2f1"/></g><g><path d="m315.853 95.723h-46.846c8.016 0 14.514 6.498 14.514 14.514s-6.498 14.514-14.514 14.514h46.846c8.016 0 14.514-6.498 14.514-14.514s-6.498-14.514-14.514-14.514z" fill="#d8e2f1"/></g><g><path d="m230.652 77.58c-4.149 0-7.513-3.363-7.513-7.513v-5.904c0-8.691-3.788-16.915-10.393-22.563l-2.204-1.885c-3.153-2.697-3.524-7.439-.827-10.592 2.697-3.155 7.439-3.525 10.593-.828l2.204 1.885c9.948 8.507 15.654 20.893 15.654 33.983v5.904c-.001 4.15-3.364 7.513-7.514 7.513z" fill="#90d8f9"/></g><g><path d="m137.861 143.445c-.883 0-1.78-.157-2.655-.487-3.881-1.467-5.838-5.803-4.371-9.684l3.999-10.579c3.971-10.507 5.985-21.53 5.985-32.762v-14.721c0-18.854 15.339-34.194 34.194-34.194 10.89 0 21.221 5.255 27.635 14.056l8.432 11.571c2.444 3.353 1.706 8.053-1.647 10.496s-8.053 1.705-10.496-1.647l-8.432-11.571c-3.595-4.934-9.387-7.88-15.491-7.88-10.569 0-19.168 8.599-19.168 19.168v14.721c0 13.054-2.34 25.864-6.955 38.074l-3.999 10.579c-1.138 3.008-3.996 4.86-7.031 4.86z" fill="#90d8f9"/></g><g><path d="m281.72 77.58c-4.15 0-7.513-3.363-7.513-7.513v-5.904c0-13.09 5.705-25.476 15.654-33.983l2.203-1.884c3.153-2.698 7.896-2.327 10.592.826 2.697 3.153 2.327 7.895-.826 10.592l-2.204 1.885c-6.606 5.649-10.394 13.873-10.394 22.564v5.904c.001 4.15-3.363 7.513-7.512 7.513z" fill="#90d8f9"/></g><g><path d="m372.731 143.445c-3.034 0-5.892-1.852-7.029-4.859l-3.998-10.579c-4.615-12.209-6.956-25.019-6.956-38.074v-14.721c0-10.57-8.599-19.168-19.169-19.168-6.104 0-11.896 2.945-15.491 7.88l-8.431 11.571c-2.443 3.354-7.143 4.092-10.496 1.647-3.353-2.444-4.091-7.143-1.647-10.496l8.431-11.571c6.414-8.801 16.745-14.056 27.635-14.056 18.854 0 34.194 15.34 34.194 34.194v14.721c0 11.233 2.014 22.255 5.986 32.761l3.998 10.58c1.467 3.882-.49 8.217-4.372 9.684-.875.329-1.773.486-2.655.486z" fill="#90d8f9"/></g><g><path d="m256 77.58c-4.149 0-7.513-3.363-7.513-7.513v-48.583c0-4.15 3.364-7.513 7.513-7.513 4.15 0 7.513 3.363 7.513 7.513v48.583c0 4.15-3.363 7.513-7.513 7.513z" fill="#90d8f9"/></g></g></svg>