<svg height="512pt" viewBox="0 0 512 512" width="512pt" xmlns="http://www.w3.org/2000/svg"><path d="m448.597656 337.597656-25.195312 16.804688-47.402344-71.402344-47.402344 71.402344h-25.195312l-47.402344-71.402344-47.402344 71.402344h-25.195312l-47.402344-71.402344-47.402344 71.402344-25.195312-16.804688 50.097656-74.699218h45l37.5 56.101562 37.5-56.101562h45l37.5 56.101562 37.5-56.101562h45zm0 0" fill="#714c2f"/><path d="m303.402344 354.402344-47.402344-71.402344v-20.101562h22.5l37.5 56.101562 37.5-56.101562h45l50.097656 74.699218-25.195312 16.804688-47.402344-71.402344-47.402344 71.402344zm0 0" fill="#523522"/><path d="m77.40625 409.28125h112.5v98.96875h-112.5zm0 0" fill="#714c2f"/><path d="m322.09375 406.9375h111.5625v97.09375h-111.5625zm0 0" fill="#523522"/><path d="m181 256v135h-90v-135h-30v135h-30v30h30v76h30v-76h30v76h30v-76h30v76h30v-241zm0 0" fill="#895d3c"/><path d="m481 391h-30v-135h-30v135h-90v-135h-30v241h30v-76h30v76h30v-76h30v76h30v-76h30zm0 0" fill="#714c2f"/><path d="m512 256v15h-512v-15c0-42.300781 28-79.800781 68.199219-93l112.800781-42 52.5-24.902344h31.199219l66.300781 24.902344 113.800781 42c40.199219 13.199219 67.199219 50.699219 67.199219 93zm0 0" fill="#fdbf00"/><path d="m512 256v15h-256v-174.902344h8.699219l66.300781 24.902344 113.800781 42c40.199219 13.199219 67.199219 50.699219 67.199219 93zm0 0" fill="#ff9100"/><path d="m0 482h512v30h-512zm0 0" fill="#61d7a8"/><path d="m256 482h256v30h-256zm0 0" fill="#00ab94"/><path d="m331 72.398438v48.601562h-150v-48.601562l75-53.796876zm0 0" fill="#895d3c"/><path d="m331 121h-75v-102.398438l75 53.796876zm0 0" fill="#714c2f"/><path d="m385 94-18 24-111-80.800781-111 80.800781-18-24 129-94zm0 0" fill="#fdbf00"/><path d="m367 118-111-80.800781v-37.199219l129 94zm0 0" fill="#ff9100"/></svg>