<svg id="Capa_1" enable-background="new 0 0 497 497" height="512" viewBox="0 0 497 497" width="512" xmlns="http://www.w3.org/2000/svg"><g><path d="m209 144.824h70v64.01l-7.397 24.5 7.397 24.5v63l-7.397 25 7.397 25v63.511h-70v-63.511l4-25-4-25v-63l4-24.5-4-24.5z" fill="#dc4955"/><path d="m279 144.824h-64.862v.001h-5.138v64.01l5 21.788-5 27.212v63l3 29.105-3 20.895v63.51h20v-252.872c0-2.838 2.301-5.138 5.138-5.138h44.862z" fill="#d82f3c"/><g fill="#e3e0e4"><path d="m140.759 331.298c-.388 0-.779-.03-1.174-.092-4.092-.644-6.887-4.482-6.244-8.574l29.298-186.351c.644-4.092 4.483-6.885 8.574-6.244 4.092.644 6.887 4.482 6.244 8.574l-29.298 186.351c-.581 3.698-3.772 6.336-7.4 6.336z"/><path d="m38.444 291.029c-.396 0-.798-.031-1.202-.097-4.089-.658-6.871-4.507-6.212-8.597l23.987-147.946c.659-4.09 4.513-6.869 8.597-6.212 4.089.659 6.871 4.508 6.212 8.597l-23.986 147.946c-.594 3.685-3.779 6.309-7.396 6.309z"/><path d="m347.007 329.766c-3.628 0-6.818-2.639-7.4-6.336l-28.623-182.01c-.643-4.092 2.152-7.931 6.244-8.574 4.096-.641 7.931 2.152 8.574 6.244l28.623 182.01c.643 4.092-2.152 7.931-6.244 8.574-.395.062-.787.092-1.174.092z"/><path d="m448.766 287.218c-3.617 0-6.802-2.623-7.396-6.309l-22.516-139.909c-.658-4.089 2.123-7.938 6.212-8.597 4.095-.657 7.938 2.124 8.597 6.212l22.517 139.91c.658 4.09-2.123 7.938-6.212 8.597-.404.065-.806.096-1.202.096z"/></g><path d="m177.46 138.614-5.93 37.72h-15.19l6.3-40.05c.64-4.09 4.48-6.89 8.57-6.25 4.1.65 6.89 4.49 6.25 8.58z" fill="#c8c3ca"/><path d="m69.83 136.774-6.41 39.56h-15.2l6.8-41.94c.66-4.09 4.51-6.87 8.59-6.22 4.09.66 6.87 4.51 6.22 8.6z" fill="#c8c3ca"/><path d="m331.66 176.334h-15.19l-5.49-34.91c-.64-4.1 2.16-7.94 6.25-8.58s7.93 2.15 8.57 6.25z" fill="#c8c3ca"/><path d="m439.73 176.334h-15.19l-5.69-35.33c-.65-4.09 2.13-7.94 6.22-8.6s7.93 2.12 8.59 6.21z" fill="#c8c3ca"/><path d="m479.402 85.042-229.166-84.565c-1.12-.415-2.352-.415-3.472 0l-219.764 81.357 221 10z" fill="#dc4955"/><path d="m103.287 82.498-35.69 6.679-42.032-6.843 221.195-81.86c1.12-.41 2.36-.41 3.48 0l9.49 3.51z" fill="#d82f3c"/><path d="m69.83 136.774-6.41 39.56h-15.2l6.8-41.94c.66-4.09 4.51-6.87 8.59-6.22 4.09.66 6.87 4.51 6.22 8.6z" fill="#c8c3ca"/><path d="m177.46 138.614-5.93 37.72h-15.19l6.3-40.05c.64-4.09 4.48-6.89 8.57-6.25 4.1.65 6.89 4.49 6.25 8.58z" fill="#c8c3ca"/><path d="m325.8 139.094 5.86 37.24h-15.19l-5.49-34.91c-.64-4.1 2.16-7.94 6.25-8.58s7.93 2.15 8.57 6.25z" fill="#c8c3ca"/><path d="m439.73 176.334h-15.19l-5.69-35.33c-.65-4.09 2.13-7.94 6.22-8.6s7.93 2.12 8.59 6.21z" fill="#c8c3ca"/><path d="m10.131 82.334h476.738c6.672 0 11.52 6.294 9.771 12.685l-14.75 53.899c-1.198 4.377-5.201 7.416-9.771 7.416h-447.238c-4.57 0-8.573-3.038-9.771-7.416l-14.75-53.899c-1.749-6.391 3.099-12.685 9.771-12.685z" fill="#f8e837"/><path d="m44.88 156.334h-20c-4.57 0-8.57-3.04-9.77-7.42l-14.75-53.89c-1.75-6.4 3.1-12.69 9.77-12.69h20c-6.67 0-11.52 6.29-9.77 12.69l14.75 53.89c1.2 4.38 5.2 7.42 9.77 7.42z" fill="#f3d332"/><path d="m175 422.834h138c22.091 0 40 17.909 40 40v24.004c0 5.521-4.476 9.996-9.996 9.996h-198.008c-5.521 0-9.996-4.476-9.996-9.996v-24.004c0-22.091 17.909-40 40-40z" fill="#b7e546"/><path d="m155 462.834v24c0 5.52 4.48 10 10 10h-20c-5.52 0-10-4.48-10-10v-24c0-22.09 17.91-40 40-40h20c-22.09 0-40 17.91-40 40z" fill="#abd641"/><circle cx="40" cy="314.834" fill="#e592d0" r="40"/><circle cx="141.5" cy="348.334" fill="#e592d0" r="32.5"/><circle cx="346.5" cy="348.334" fill="#e592d0" r="32.5"/><circle cx="457" cy="314.834" fill="#e592d0" r="40"/><path d="m75.86 332.564c-6.53 13.2-20.14 22.27-35.86 22.27-22.09 0-40-17.91-40-40 0-14.86 8.11-27.83 20.14-34.73-2.65 5.35-4.14 11.37-4.14 17.73 0 22.09 17.91 40 40 40 7.22 0 14-1.92 19.86-5.27z" fill="#e172c1"/><path d="m171.59 360.624c-4.84 11.86-16.49 20.21-30.09 20.21-17.95 0-32.5-14.55-32.5-32.5 0-12.9 7.52-24.05 18.41-29.29-1.56 3.79-2.41 7.94-2.41 12.29 0 17.95 14.55 32.5 32.5 32.5 5.05 0 9.83-1.15 14.09-3.21z" fill="#e172c1"/><path d="m376.59 360.624c-4.84 11.86-16.49 20.21-30.09 20.21-17.95 0-32.5-14.55-32.5-32.5 0-12.9 7.52-24.05 18.41-29.29-1.56 3.79-2.41 7.94-2.41 12.29 0 17.95 14.55 32.5 32.5 32.5 5.05 0 9.83-1.15 14.09-3.21z" fill="#e172c1"/><path d="m492.86 332.564c-6.53 13.2-20.14 22.27-35.86 22.27-22.09 0-40-17.91-40-40 0-14.86 8.11-27.83 20.14-34.73-2.65 5.35-4.14 11.37-4.14 17.73 0 22.09 17.91 40 40 40 7.22 0 14-1.92 19.86-5.27z" fill="#e172c1"/><path d="m209 208.834h70v49h-70z" fill="#f8e837"/><path d="m209 320.834h70v50h-70l3-26.729z" fill="#f8e837"/><path d="m209 208.834h20v49h-20z" fill="#f3d332"/><path d="m209 320.834h20v50h-20z" fill="#f3d332"/><path d="m90.4 82.334h96.4v74h-96.4z" fill="#b2e5fb"/><path d="m313.2 82.334h96.4v74h-96.4z" fill="#b2e5fb"/><path d="m87.4 82.334h20v74h-20z" fill="#91dafa"/><path d="m310.2 82.334h20v74h-20z" fill="#91dafa"/></g></svg>