<svg id="Layer_3" enable-background="new 0 0 64 64" height="512" viewBox="0 0 64 64" width="512" xmlns="http://www.w3.org/2000/svg"><g><path d="m20 52h8v4h-8z" fill="#ac876c"/><path d="m36 52h8v4h-8z" fill="#ac876c"/><path d="m52 52h8v4h-8z" fill="#ac876c"/><path d="m2 56h60v6h-60z" fill="#bd9f89"/><path d="m2 24h60v6h-60z" fill="#bd9f89"/><path d="m4 52h8v4h-8z" fill="#ac876c"/><path d="m6 34h4v18h-4z" fill="#bd9f89"/><path d="m22 34h4v18h-4z" fill="#bd9f89"/><path d="m38 34h4v18h-4z" fill="#bd9f89"/><path d="m54 34h4v18h-4z" fill="#bd9f89"/><g fill="#ac876c"><path d="m20 30h8v4h-8z"/><path d="m36 30h8v4h-8z"/><path d="m52 30h8v4h-8z"/><path d="m4 30h8v4h-8z"/></g><g><path d="m59.497 24c-4.63-10.594-15.196-18-27.497-18s-22.867 7.406-27.497 18z" fill="#ac876c"/></g><path d="m32 6c1.348 0 2.671.104 3.972.277.007-.093.028-.182.028-.277 0-2.209-1.791-4-4-4s-4 1.791-4 4c0 .095.021.184.028.277 1.301-.173 2.624-.277 3.972-.277z" fill="#bd9f89"/><path d="m26 16c1.105 0 2-.895 2-2s.895-2 2-2 2 .895 2 2v4c0 1.105.895 2 2 2s2-.895 2-2v-1c0-1.105.895-2 2-2s2 .895 2 2 .895 2 2 2 2-.895 2-2v-1c0-1.105.895-2 2-2s2 .895 2 2v1.5c0 1.381 1.119 2.5 2.5 2.5s2.5-1.119 2.5-2.5v-2.894c-5.411-5.315-12.815-8.606-21-8.606-2.773 0-5.451.395-8 1.099v6.901c0 1.105.895 2 2 2z" fill="#e8eff4"/></g></svg>