<svg id="Capa_1" enable-background="new 0 0 497 497" height="512" viewBox="0 0 497 497" width="512" xmlns="http://www.w3.org/2000/svg"><g><path d="m301.638 118.853-53.139 10-63.137-10v-34.769l63.139-10 53.137 10z" fill="#b5adb6"/><path d="m281.638 79.332v44.272l30-4.751v-34.769z" fill="#a79ba7"/><path d="m339.437 32.439-20.087-.77h-20.458l-50.391 10v32.414l50.391 10h20.458l20.045-.236c14.474 0 26.162-11.498 26.162-25.971 0-14.473-11.647-25.437-26.12-25.437z" fill="#fe646f"/><path d="m147.65 84.084h20.458l30-10h50.391v-32.414h-50.391l-30-10h-20.458c-14.474 0-26.207 11.733-26.207 26.207 0 14.473 11.733 26.207 26.207 26.207z" fill="#5f99d7"/><path d="m401.581 465.33h-7.812c-13.784 0-24.959-11.174-24.959-24.959v-32.288l33.865-10 23.865 10v32.288c0 13.785-11.174 24.959-24.959 24.959z" fill="#554e56"/><path d="m248.499 41.67-50.391-10h-30v52.414h30l50.391-10z" fill="#3c87d0"/><path d="m336.859 118.853h-186.718c-8.302 0-15.803 4.953-19.064 12.588l-44.375 103.907 161.799 10 151.796-10-44.375-103.907c-3.26-7.635-10.761-12.588-19.063-12.588z" fill="#efedef"/><path d="m335.923 131.441 45.924 105.665 28.451-1.758-44.375-103.907c-3.261-7.635-10.762-12.588-19.064-12.588h-30c8.302 0 15.803 4.953 19.064 12.588z" fill="#d7d0d6"/><path d="m448.671 350.316-200.169 10-210.172-10v-33.065l10-34.528c0-4.988-9.229-9.796-7.8-14.311 6.067-19.169 23.999-33.064 45.175-33.064h315.591c21.177 0 39.108 13.894 45.175 33.064 1.429 4.515 2.2 9.323 2.2 14.311v34.528z" fill="#7a6d79"/><path d="m416.54 402.177v38.194c0 13.418-10.589 24.358-23.865 24.931.363.016.727.028 1.094.028h17.812c13.784 0 24.959-11.174 24.959-24.959v-32.288z" fill="#433f43"/><path d="m103.231 465.33h-17.812c-13.785 0-24.959-11.174-24.959-24.959v-32.288l33.865-10 33.865 10v32.288c0 13.785-11.175 24.959-24.959 24.959z" fill="#554e56"/><path d="m349.35 31.67h-30c14.474 0 26.207 11.733 26.207 26.207 0 14.474-11.733 26.207-26.207 26.207h30c14.474 0 26.207-11.733 26.207-26.207 0-14.474-11.733-26.207-26.207-26.207z" fill="#fd4755"/><path d="m448.671 282.723c0-4.988 9.229-9.796 7.8-14.311-6.067-19.169-23.999-33.064-45.175-33.064h-30c21.177 0 39.108 13.894 45.175 33.064 1.429 4.515 2.2 9.323 2.2 14.311v34.528 34.493l30-1.427v-33.065z" fill="#685e68"/><path d="m117.922 274.618 14.617 35.751c1.343 3.284-1.073 6.881-4.621 6.881h-89.589v-34.528c0-4.988.776-9.794 2.205-14.31h68.146c4.055.001 7.707 2.453 9.242 6.206z" fill="#efedef"/><path d="m458.116 350.316h-152.814l-56.802 10-56.802-10h-162.814c-15.952 0-28.884 12.932-28.884 28.884 0 15.952 12.932 28.884 28.884 28.884h162.814l56.802-10 56.802 10h152.814c15.952 0 28.884-12.932 28.884-28.884 0-15.952-12.932-28.884-28.884-28.884z" fill="#b5adb6"/><g><path d="m468.116 350.316h-30c15.952 0 28.884 12.932 28.884 28.884 0 15.952-12.932 28.883-28.884 28.883h30c15.952 0 28.884-12.931 28.884-28.883 0-15.952-12.932-28.884-28.884-28.884z" fill="#a79ba7"/></g><path d="m379.078 274.618-14.617 35.751c-1.343 3.284 1.073 6.881 4.621 6.881h79.589v-34.528c0-4.988-.776-9.794-2.205-14.31h-58.146c-4.055.001-7.707 2.453-9.242 6.206z" fill="#efedef"/><path d="m456.466 268.413h-30c1.429 4.516 2.205 9.322 2.205 14.31v34.528h30v-34.528c0-4.989-.776-9.795-2.205-14.31z" fill="#d7d0d6"/><path d="m198.108 31.67h90.784v52.414h-90.784z" fill="#efedef"/><path d="m268.892 31.67h30v52.414h-30z" fill="#d7d0d6"/><path d="m305.302 408.083h-113.604c-5.523 0-10-4.477-10-10v-37.767c0-5.523 4.477-10 10-10h113.605c5.523 0 10 4.477 10 10v37.767c-.001 5.523-4.478 10-10.001 10z" fill="#efedef"/><path d="m305.302 350.316h-20c5.523 0 10 4.477 10 10v37.767c0 5.523-4.477 10-10 10h20c5.523 0 10-4.477 10-10v-37.767c0-5.523-4.477-10-10-10z" fill="#d7d0d6"/><path d="m288.804 317.251h-90.608c-10.357 0-18.753-8.396-18.753-18.753 0-10.357 8.396-18.753 18.753-18.753h90.608c10.357 0 18.753 8.396 18.753 18.753 0 10.357-8.396 18.753-18.753 18.753z" fill="#b5adb6"/><path d="m298.804 279.744h-20c10.357 0 18.753 8.396 18.753 18.753s-8.396 18.753-18.753 18.753h20c10.357 0 18.753-8.396 18.753-18.753s-8.396-18.753-18.753-18.753z" fill="#a79ba7"/></g></svg>