<svg id="Layer_1" enable-background="new 0 0 150 150" height="512" viewBox="0 0 150 150" width="512" xmlns="http://www.w3.org/2000/svg"><g><g fill="#3a556a"><path d="m111.076 18.685c-2.595-.041-4.732 2.03-4.773 4.625s2.03 4.732 4.625 4.773 4.732-2.03 4.773-4.625c0-.024.001-.049.001-.073-.001-2.568-2.06-4.66-4.626-4.7zm0 7.529c-1.563.031-2.855-1.212-2.886-2.775s1.212-2.855 2.775-2.886 2.855 1.212 2.886 2.775c0 .018.001.037.001.055-.011 1.539-1.239 2.792-2.776 2.831z"/><path d="m88.505 18.685c-2.595 0-4.699 2.104-4.699 4.699s2.104 4.699 4.699 4.699 4.699-2.104 4.699-4.699-2.103-4.699-4.699-4.699zm0 7.529c-1.563 0-2.831-1.267-2.831-2.831s1.267-2.831 2.831-2.831c1.563 0 2.831 1.267 2.831 2.831-.01 1.56-1.272 2.821-2.831 2.831z"/><path d="m61.495 18.685c-2.595 0-4.699 2.104-4.699 4.699s2.104 4.699 4.699 4.699 4.699-2.104 4.699-4.699-2.104-4.699-4.699-4.699zm0 7.529c-1.563 0-2.831-1.267-2.831-2.831s1.267-2.831 2.831-2.831c1.563 0 2.831 1.267 2.831 2.831-.011 1.56-1.272 2.821-2.831 2.831z"/><path d="m38.924 18.685c-2.595-.041-4.732 2.03-4.773 4.625s2.03 4.732 4.625 4.773 4.732-2.03 4.773-4.625c0-.024.001-.049.001-.073 0-2.568-2.059-4.66-4.626-4.7zm0 7.529c-1.563.031-2.855-1.212-2.886-2.775s1.212-2.855 2.775-2.886 2.855 1.212 2.886 2.775c0 .018.001.037.001.055-.01 1.539-1.238 2.792-2.776 2.831z"/></g><path d="m133.258 17.76h7.178v117.256h-7.178z" fill="#d5d6db"/><path d="m9.564 17.76h7.178v117.256h-7.178z" fill="#d5d6db"/><path d="m145.061 10.526h-140.122c-2.728 0-4.939 2.212-4.939 4.94s2.211 4.939 4.939 4.939h140.122c2.728 0 4.939-2.212 4.939-4.94s-2.211-4.939-4.939-4.939z" fill="#e1e6e9"/><path d="m111.076 114.702c-.483.002-.886-.369-.925-.851v-87.637c0-.511.414-.925.925-.925.507.01.915.418.925.925v87.636c-.047.479-.445.845-.925.852z" fill="#fcd462"/><path d="m88.505 114.702c-.511 0-.925-.414-.925-.925v-87.563c0-.511.414-.925.925-.925.507.01.915.418.925.925v87.636c-.047.479-.445.845-.925.852z" fill="#fcd462"/><path d="m61.495 114.702c-.507-.01-.915-.418-.925-.925v-87.563c.01-.507.418-.915.925-.925.511 0 .925.414.925.925v87.636c-.039.483-.442.853-.925.852z" fill="#fcd462"/><path d="m38.924 114.702c-.483.002-.886-.369-.925-.851v-87.637c0-.511.414-.925.925-.925s.925.414.925.925v87.636c-.038.483-.441.853-.925.852z" fill="#fcd462"/><path d="m81.808 112.519h35.946v4.773h-35.946z" fill="#f7be56"/><path d="m32.246 112.519h35.946v4.773h-35.946z" fill="#f7be56"/><path d="m127.597 134.497h18.5v4.977h-18.5z" fill="#d5d6db"/><path d="m3.903 134.497h18.5v4.977h-18.5z" fill="#d5d6db"/></g></svg>