<svg id="Layer_1" enable-background="new 0 0 256 256" height="512" viewBox="0 0 256 256" width="512" xmlns="http://www.w3.org/2000/svg"><g><g><path d="m54.312 10.5h148v235h-148z" fill="#44c7b6"/><path d="m54.312 10.5h15v235h-15z" fill="#4bdbc3"/><path d="m187.312 10.5h15v235h-15z" fill="#3bb2a0"/></g><g fill="#5f266d"><path d="m143.312 223.667h-20c-2.209 0-4 1.791-4 4s1.791 4 4 4h20c2.209 0 4-1.791 4-4s-1.791-4-4-4z"/><path d="m159.812 223.667h-1.5c-2.209 0-4 1.791-4 4s1.791 4 4 4h1.5c2.209 0 4-1.791 4-4s-1.791-4-4-4z"/><path d="m29.312 154c2.209 0 4-1.791 4-4v-18h17v113.5c0 2.209 1.791 4 4 4h148c2.209 0 4-1.791 4-4v-113.5h16.375v18c0 2.209 1.791 4 4 4s4-1.791 4-4v-57.333c0-2.209-1.791-4-4-4h-20.375v-78.167c0-2.209-1.791-4-4-4h-148c-2.209 0-4 1.791-4 4v78.167h-21c-2.209 0-4 1.791-4 4v57.333c0 2.209 1.792 4 4 4zm177-57.333h16.375v9.354h-16.375zm0 17.354h16.375v9.979h-16.375zm-32.968 9.979h-16.031v-9.979h16.031zm0-17.979h-16.031v-9.354h16.031zm8-91.521h16.969v74.167h-16.969zm0 82.167h16.969v9.354h-16.969zm0 17.354h16.969v9.979h-16.969zm0 17.979h16.969v109.5h-16.969zm-98.063-117.5h90.063v50.75h-90.063zm0 58.75h90.063v15.417h-90.063zm49.031 32.771v-9.354h17v9.354zm17 8v9.979h-17v-9.979zm-42-8v-9.354h17v9.354zm17 8v9.979h-17v-9.979zm-41.031-17.354h16.031v9.354h-16.031zm0 17.354h16.031v9.979h-16.031zm0 17.979h90.063v50.75h-90.063zm0 58.75h90.063v50.75h-90.063zm-24.969-176.25h16.969v74.167h-16.969zm0 82.167h16.969v9.354h-16.969zm0 17.354h16.969v9.979h-16.969zm0 17.979h16.969v109.5h-16.969zm-25-35.333h17v9.354h-17zm0 17.354h17v9.979h-17z"/></g></g></svg>