<svg id="Capa_1" enable-background="new 0 0 512 512" height="512" viewBox="0 0 512 512" width="512" xmlns="http://www.w3.org/2000/svg"><g id="XMLID_2606_"><g id="XMLID_2611_"><path id="XMLID_455_" d="m461.601 65.03c-2.835-3.017-6.791-4.728-10.931-4.728h-389.34c-4.14 0-8.096 1.711-10.931 4.728s-4.297 7.071-4.041 11.203l9.58 154.097c1.469 23.638 21.177 42.155 44.867 42.155h310.388c23.689 0 43.397-18.517 44.867-42.155l9.58-154.097c.258-4.132-1.204-8.186-4.039-11.203z" fill="#ebf5f7"/><path id="XMLID_454_" d="m374.325 242.485h-236.65c-8.284 0-15 6.716-15 15v34.251c0 32.065 14.437 61.886 39.608 81.813 15.51 12.28 22.602 31.855 18.509 51.088l-9.839 46.233c-2.148 10.095.344 20.485 6.838 28.506s16.138 12.624 26.459 12.624h103.5c10.321 0 19.964-4.601 26.458-12.622s8.987-18.412 6.838-28.507l-9.839-46.234c-4.093-19.232 2.999-38.808 18.509-51.087 25.171-19.929 39.608-49.749 39.608-81.814v-34.251c.001-8.284-6.715-15-14.999-15z" fill="#ebf5f7"/><ellipse id="XMLID_451_" cx="111.096" cy="122.332" fill="#04303e" rx="15.081" ry="15.076"/></g><g id="XMLID_2610_"><path id="XMLID_459_" d="m461.601 65.03c-2.835-3.017-6.791-4.728-10.931-4.728h-194.67v212.183h155.194c23.689 0 43.397-18.517 44.867-42.155l9.58-154.097c.257-4.132-1.205-8.186-4.04-11.203z" fill="#dfeef0"/></g><g id="XMLID_2609_"><path id="XMLID_462_" d="m374.325 242.485h-118.325v269.515h51.75c10.321 0 19.964-4.601 26.458-12.622s8.987-18.412 6.838-28.507l-9.839-46.234c-4.093-19.232 2.999-38.808 18.509-51.087 25.171-19.929 39.608-49.749 39.608-81.814v-34.251c.001-8.284-6.715-15-14.999-15z" fill="#dfeef0"/></g><path id="XMLID_453_" d="m364.472 182.183h-216.944c-29.531 0-53.555 24.019-53.555 53.541v21.761c0 8.284 6.716 15 15 15h294.056c8.284 0 15-6.716 15-15v-21.761c-.001-29.523-24.026-53.541-53.557-53.541z" fill="#90dffa"/><g id="XMLID_2608_"><path id="XMLID_460_" d="m364.472 182.183h-108.472v90.302h147.028c8.284 0 15-6.716 15-15v-21.761c0-29.523-24.025-53.541-53.556-53.541z" fill="#60d1f7"/></g><path id="XMLID_452_" d="m422.541 0h-333.082c-28.357 0-51.428 23.07-51.428 51.427v23.875c0 8.284 6.716 15 15 15h405.937c8.284 0 15-6.716 15-15v-23.875c.001-28.357-23.07-51.427-51.427-51.427z" fill="#90dffa"/><g id="XMLID_2607_"><path id="XMLID_458_" d="m422.541 0h-166.541v90.302h202.968c8.284 0 15-6.716 15-15v-23.875c0-28.357-23.07-51.427-51.427-51.427z" fill="#60d1f7"/></g></g></svg>